<svg width="280" height="97" viewBox="0 0 280 97" fill="none" xmlns="http://www.w3.org/2000/svg">
<path d="M7.2 44.3273L7.6 45.0273C7.2 44.4273 6.8 43.8273 6.5 43.2273C8.5 47.3273 10.7 51.2273 13.1 55.0273L14 56.5273L14.5 57.2273L14.7 57.6273C14.9 57.9273 15.2 58.1273 15.4 58.4273C15.7 58.8273 16.1 59.1273 16.5 59.3273C16.6 59.5273 16.8 59.7273 17 59.8273C17.1 59.8273 17.2 59.7273 17.2 59.4273C17.2 59.1273 17.2 58.8273 17.1 58.5273C17.1 58.3273 17 58.0273 16.9 57.8273C16.9 57.7273 16.9 57.6273 16.8 57.4273C16.8 57.0273 16.8 56.7273 16.8 56.3273V56.2273L16.7 56.0273L16.5 55.6273L15 52.5273L16.2 55.1273C15.6 53.9273 14.9 52.6273 14.1 51.3273L14.2 51.8273C12 47.4273 8.6 41.7273 6.3 39.1273C4.1 36.5273 4 37.9273 6.2 42.3273L7.2 44.3273Z" fill="white"/>
<path d="M10.4 53.0273C9.1 50.4273 7.8 47.9273 6.6 45.4273L6.4 44.9273L6.1 45.3273C7.7 47.4273 10.1 51.0273 12.2 54.4273L13 55.6273C13.2 56.0273 13.5 56.3273 13.9 56.6273C14.3 56.8273 13.8 55.6273 12.9 54.0273L11.9 52.0273C9.5 47.4273 5.3 40.3273 3.2 38.2273C2.7 37.7273 2.8 38.3273 2.7 38.6273C2.3 38.6273 3.1 40.4273 4.4 42.7273C5.7 44.9273 7.1 46.7273 7.4 46.7273L8 47.9273L7.4 47.1273C8 47.6273 9.3 49.6273 10.3 51.1273L11.7 53.3273L11.6 51.7273L10.8 50.6273C10.8 50.7273 10.8 50.8273 10.9 50.9273C9.4 48.7273 8 46.7273 6.4 44.3273L4.3 41.3273C3.7 40.5273 3.6 40.7273 4 41.7273L4.6 43.0273L4.3 42.3273C6 45.6273 8 49.0273 9.7 52.3273C9.9 52.8273 10.2 53.2273 10.6 53.6273C10.7 53.8273 10.7 53.6273 10.4 53.0273Z" fill="white"/>
<path d="M3.7 41.8273C3.4 41.2273 3.1 40.6273 2.7 40.0273L2.5 39.7273L3 40.8273C3.3 41.6273 3.6 41.9273 3.7 41.8273Z" fill="white"/>
<path d="M2.5 39.7273L2.2 39.3273L2.4 39.6273V39.7273H2.5Z" fill="white"/>
<path d="M74.1 28.1273C78.2 23.7273 82.7 19.5273 87.6 15.9273C92.5 12.1273 97.8 9.02727 103.4 6.42727C103.6 6.32727 103.9 6.22727 104.1 6.02727C104.1 6.02727 103.8 6.02727 103.5 6.22727C97.8 8.72727 92.5 11.9273 87.6 15.6273C82.7 19.3273 78.3 23.4273 74.1 27.8273C73.9 28.0273 73.8 28.2273 73.6 28.4273C73.7 28.5273 73.9 28.3273 74.1 28.1273Z" fill="white"/>
<path d="M156.1 8.42728C155.8 8.42728 155.8 8.42728 156.1 8.42728C156.4 8.62728 156.7 8.72728 157 8.82728C157.2 8.82728 157.2 8.82728 157 8.72728C156.7 8.62728 156.4 8.52728 156.1 8.42728Z" fill="white"/>
<path d="M152.7 11.0273C151.3 10.6273 149.9 10.3273 148.4 10.1273C148.2 10.1273 147.9 10.0273 147.7 9.92727C147.8 10.0273 147.5 10.0273 146.9 9.92727C141.4 8.92727 135.7 8.52727 130.1 8.82727C124.4 9.12727 118.8 10.3273 113.4 12.3273C113.3 12.4273 113.2 12.5273 113 12.6273C111.8 13.2273 110.6 13.8273 109.3 14.2273L108.2 14.7273C103.6 16.7273 99.2 19.1273 95.1 22.0273C94.3 22.7273 93.4 23.4273 92.4 24.2273C89.1 27.1273 86 30.3273 83.1 33.6273C83.3 33.4273 83.5 33.3273 83.5 33.4273C83.5 33.6273 82.9 34.4273 82.1 35.3273L80.9 36.7273C82.1 35.4273 83.3 34.1273 84.5 32.9273C84.7 32.7273 84.9 32.6273 85 32.4273C86.3 31.1273 87.7 29.7273 89.2 28.4273C95.5 22.7273 102.3 18.0273 109.6 14.7273C116.8 11.4273 124.6 9.62727 132.6 9.32727C132.9 9.32727 133.2 9.32727 133.5 9.32727C133.6 9.32727 133.6 9.42727 133.3 9.42727C128.5 9.72727 123.8 10.6273 119.3 12.1273C114.5 13.7273 110 15.7273 105.6 18.2273C99.9 21.5273 94.7 25.5273 90.1 30.1273C85.3 34.8273 81 40.0273 77.2 45.6273C76.3 46.8273 75.5 48.1273 74.6 49.3273L74 50.2273L73.4 51.0273L72.8 52.0273C72 53.2273 71.2 54.5273 70.5 55.8273C69.8 57.1273 69 58.5273 68.3 59.9273L66.2 64.3273L61.9 73.3273L61.5 72.8273L61.3 72.6273C61.2 72.5273 61.2 72.4273 61.1 72.3273L60.3 71.1273L58.6 68.7273L55.2 63.8273L48.3 53.8273L46.6 51.3273L45.9 50.3273L45.4 49.7273L43.5 47.0273L42.5 45.6273C42.2 45.2273 41.7 44.5273 41.8 44.7273L41.7 44.4273C41.6 44.3273 41.4 44.2273 41.3 44.1273C41.3 44.4273 41.2 44.6273 41.2 44.7273V44.8273L40.9 45.4273L40.3 46.8273L37.9 52.4273L32.8 64.4273L23.2 86.9273C22.1 89.6273 20.9 92.3273 19.8 94.8273C16.8 89.6273 14.2 84.8273 12.2 81.1273C10.3 77.4273 9.1 74.7273 9 73.7273C8.9 73.0273 9.3 73.1273 10.1 74.0273C11.3 75.4273 12.4 76.8273 13.4 78.4273L11.8 75.7273L9.3 71.3273C8.2 69.2273 7.1 67.3273 6.2 65.6273C5.8 64.8273 5.4 64.0273 5.1 63.3273C5 63.1273 5 63.0273 4.9 62.9273L4.8 62.6273C4.7 62.4273 4.7 62.2273 4.6 62.0273L3.9 60.0273C3.1 57.3273 1.3 53.0273 0.8 50.7273L1.3 51.0273L1.1 50.5273C0.3 49.0273 0 47.9273 0 47.4273H0.4C0.9 47.5273 1.7 48.1273 2.7 49.1273C2.8 49.0273 3 49.0273 3.3 49.3273C3 48.0273 3 47.3273 3.8 48.0273C3.5 47.3273 3.7 47.4273 4.2 48.0273C4.4 48.2273 4.6 48.5273 4.7 48.9273C4.6 48.5273 4.5 48.4273 4.3 47.9273L3.8 46.9273L2.1 43.7273C1.5 42.4273 1.2 41.5273 1.2 41.5273C1 39.9273 1 39.9273 1.3 40.0273C1.4 40.0273 1.4 40.1273 1.5 40.2273L0.7 38.7273C0.6 38.4273 0.5 38.1273 0.5 38.1273C0.8 38.0273 0.8 38.0273 0.7 37.8273C0.7 37.7273 0.7 37.7273 0.7 37.7273C1.2 38.2273 1.2 38.2273 1.2 38.2273C1.3 38.3273 1.5 38.5273 1.5 38.5273L2.3 39.6273L3 41.3273L3.3 41.6273V42.1273V41.8273L3.7 42.6273L3.3 41.6273C4.4 43.5273 4.4 43.5273 4.8 44.2273C5.2 44.9273 5.7 45.6273 5.7 45.7273C5.7 45.6273 5.7 45.6273 5.7 45.6273L7.9 49.6273C8 49.8273 8.1 50.0273 8.1 50.1273C8.3 50.4273 8.5 50.7273 8.7 51.0273L9.2 52.0273L9.3 52.2273L9.8 53.0273L9.9 53.2273L12.4 56.7273L12.9 57.6273L13.1 58.0273L13.2 58.2273C13.2 58.2273 13.2 58.3273 13.3 58.4273C13.3 58.3273 13.3 58.3273 13.2 58.2273L13.1 57.9273C13 57.5273 13.2 57.8273 13.1 57.6273C10.9 53.3273 8.3 48.6273 5.7 44.0273C5.3 43.5273 5 42.9273 4.8 42.2273C4.9 42.1273 5.3 42.6273 5.8 43.4273C7.3 45.6273 8.8 47.9273 10.3 50.3273C11.1 51.5273 11.8 52.7273 12.6 54.0273L13.7 55.9273L14.7 57.6273C15.7 59.4273 16.6 61.2273 17.4 63.1273L17.5 63.0273C17.9 62.2273 18.4 61.3273 18.8 60.4273H18.7L19.1 59.8273V59.7273C19 59.8273 18.8 59.9273 18.7 60.0273L18.5 60.3273C18.1 61.0273 17.8 61.7273 17.3 62.4273C16.7 61.0273 16.2 59.8273 15.7 58.8273C15.5 58.4273 15.4 57.9273 15.2 57.5273L15.1 57.2273V57.0273L15 56.9273L14.7 56.4273L13.6 54.2273C13.2 53.5273 13 52.9273 13.1 52.9273C13.5 53.3273 13.8 53.8273 14.1 54.3273L15.4 56.5273L15.5 56.8273V56.9273L15.6 57.1273C15.7 57.3273 15.9 57.6273 16 57.8273C16.3 58.4273 16.6 58.9273 16.8 59.6273C17.2 59.1273 17.7 58.7273 18.2 58.4273C18.3 58.2273 18.4 57.9273 18.6 57.8273C18.6 57.7273 18.7 57.6273 18.8 57.5273L18.9 57.4273V57.3273V57.2273V57.1273L19.6 57.0273H19.5L19.4 57.1273C19.4 57.0273 19.5 57.0273 19.5 56.9273L19.9 56.2273C20.2 55.7273 20.4 55.2273 20.8 54.6273L20.3 55.0273C21.9 51.6273 23.4 48.1273 24.9 44.6273C25.7 42.9273 26.5 41.1273 27.2 39.5273L28.9 35.7273L30.7 31.7273L31.2 30.5273C33 25.7273 35 20.7273 37.3 15.1273L34.9 20.5273C36 17.8273 37 15.2273 38.1 12.5273C39.1 13.9273 40.1 15.4273 41.1 16.9273C44.8 22.3273 48.6 28.2273 51.8 33.3273L53 35.2273C53.4 35.8273 53.8 36.5273 54 36.8273C54.4 37.5273 54.8 38.2273 55.1 38.8273C55.8 40.1273 56.3 41.2273 56.7 42.1273L57.4 43.2273L57.8 43.8273L58.6 45.0273L59.4 46.2273L59.8 46.8273L60 47.1273V47.2273C60 47.2273 60 47.2273 60 47.1273L60.1 46.9273C60.5 46.1273 60.9 45.4273 61.3 44.7273C61.5 44.3273 61.7 44.0273 61.9 43.6273L62.2 43.1273L62.4 42.8273L62.8 42.2273C65.4 38.2273 68.2 34.4273 71.3 30.8273C71.6 30.3273 72 30.0273 72.4 29.7273C72.5 29.7273 72.2 30.2273 71.8 30.7273C68.8 34.4273 65.9 38.3273 63.3 42.3273L62.8 43.1273L63.1 43.0273V43.1273L63 43.2273L62.6 43.8273C62.4 44.2273 62.1 44.7273 61.9 45.1273C61.4 46.0273 60.9 46.9273 60.5 47.8273L60.4 48.0273C60.4 48.0273 60.4 48.2273 60.3 48.1273L60.1 47.8273L59.7 47.2273L60.1 47.9273L60.3 48.3273C60.3 48.4273 60.3 48.3273 60.4 48.3273L60.5 48.2273C61.3 46.8273 62.1 45.4273 63.2 43.9273L64.4 42.2273C64.9 41.4273 65.5 40.6273 66.1 39.8273C67.3 38.2273 68.5 36.6273 69.7 35.0273C70.4 34.1273 71.2 33.1273 71.9 32.2273C72.6 31.3273 73.4 30.4273 74.2 29.5273C78.1 25.1273 82.4 21.1273 87 17.4273C91.7 13.6273 96.7 10.4273 102.1 7.62727C106.7 5.32727 111.5 3.52727 116.4 2.22727C121.4 0.927273 126.5 0.227273 131.6 0.0272727C138.9 -0.172727 146.2 0.727273 153.2 2.72727C160.1 4.62727 166.7 7.32727 173 10.7273C174.7 11.6273 176.2 12.6273 176.2 12.9273C176.3 13.2273 175 12.7273 173.3 11.8273C166.7 8.42727 159.6 5.62727 152.3 3.72727C144.9 1.72727 137.3 0.927273 129.6 1.22727C121.9 1.62727 114.3 3.32727 107.1 6.22727C99.9 9.22727 93.1 13.2273 87.1 18.0273C84.5 20.1273 82 22.3273 79.6 24.6273H79.7C79.7 24.6273 79.7 25.0273 79.3 25.4273C82 22.8273 84.8 20.3273 87.8 18.1273C91.9 14.7273 96.3 11.7273 101 9.22727C112.8 3.02727 126 0.727273 138.9 2.52727C147.9 3.42727 156.7 5.72727 165 9.42727C165.3 9.52727 165.5 9.62727 165.8 9.82727C165.9 9.92727 165.7 9.82727 165.4 9.72727C159.5 7.32727 153.4 5.42727 147.1 4.22727C148.1 4.62727 148.6 4.82727 148.5 5.02727C148.4 5.22727 147.6 5.22727 146.4 5.02727C147.8 5.32727 149.2 5.62727 150.6 6.02727C151.5 6.22727 152.1 6.52727 152.1 6.62727C152.1 6.72727 151.4 6.62727 150.5 6.32727C144.9 4.92727 139 4.02727 133.2 3.92727C126.2 3.92727 119.1 5.02727 112.4 7.22727C113.1 7.12727 113.8 7.02727 114.5 7.12727C115.6 6.82727 116.6 6.52727 117.6 6.32727C122.4 5.02727 127.4 4.32727 132.4 4.32727C137.5 4.32727 142.5 4.82727 147.5 5.82727C157.4 7.92727 166.9 12.1273 175.6 17.3273C176 17.5273 176.2 17.7273 176.2 17.8273C176.2 17.9273 175.9 17.7273 175.6 17.5273C170.3 14.3273 164.8 11.6273 159.1 9.42727C159.3 9.52727 159.3 9.62727 159.1 9.52727C158.8 9.42727 158.5 9.32727 158.2 9.22727C157.9 9.12727 158 9.02727 158.2 9.12727C152.8 7.12727 147.3 5.72727 141.6 5.02727C136 4.22727 130.3 4.22727 124.6 5.02727C129.8 4.42727 135 4.42727 140.2 5.02727C145.3 5.62727 150.4 6.82727 155.3 8.62727C156.4 8.92727 157.5 9.22727 158.5 9.62727C158.8 9.72727 159 9.82727 159.3 10.0273C159.3 10.0273 159.1 10.0273 158.8 9.92727L158 9.62727C159.8 10.3273 161.2 11.1273 161 11.2273C160.8 11.4273 159.2 10.9273 157.3 10.2273C152.3 8.42727 147.1 7.02727 141.7 6.22727C141.2 6.22727 140.6 6.12727 140 6.02727C139.4 5.92727 138.9 6.02727 138.3 5.92727C146.6 6.82727 154.6 9.22727 162.1 12.6273C162.5 12.7273 162.9 13.0273 163.2 13.3273C163.2 13.4273 162.7 13.2273 162 12.9273C155.3 10.1273 148.3 8.22727 141.1 7.32727C133.9 6.42727 126.6 6.72727 119.5 8.22727C114.9 9.52727 110.5 11.4273 106.4 13.7273L108 13.0273C114.7 10.0273 121.9 8.22727 129.2 7.62727C136.5 7.02727 143.9 7.72727 150.9 9.62727C151.1 9.62727 151.4 9.72727 151.6 9.92727C151.6 9.92727 151.4 9.92727 151 9.82727C147.5 8.92727 144 8.22727 140.3 7.92727C136.7 7.62727 133.2 7.52727 129.6 7.82727C123.8 8.22727 118.2 9.42727 112.8 11.6273C118.1 9.82727 123.6 8.62727 129.2 8.32727C134.8 7.92727 140.5 8.32727 146 9.42727C146.4 9.52727 146.9 9.62727 147.3 9.72727C147.4 9.72727 147.5 9.72727 147.6 9.72727C149 9.92727 150.6 10.2273 152.1 10.7273C152.4 10.7273 152.6 10.9273 152.9 11.0273C153.2 11.1273 153 11.0273 152.7 11.0273ZM17.7 68.7273L17.6 68.4273L18 69.2273L18.2 69.9273C18.2 69.9273 18.3 69.9273 18.5 69.8273L18.2 70.0273L17.7 68.7273ZM9.9 58.0273L9.7 57.2273L9.9 58.0273ZM61.7 46.7273C61.3 47.4273 60.9 48.1273 60.6 48.8273L60.5 49.0273V49.1273L60.3 48.7273L59.7 48.0273L58.8 46.6273C58.2 45.6273 57.7 44.7273 57.1 43.8273L58.3 45.4273L59.4 47.2273L60 48.2273L60.3 48.7273L60.4 48.8273L60.5 48.6273C60.9 48.0273 61.3 47.3273 61.7 46.7273ZM14.3 60.3273C14.6 61.2273 14.9 62.1273 15.2 63.0273C15.6 63.5273 15.9 64.1273 16.3 64.7273C16.9 65.8273 17.5 66.9273 18.2 68.0273L18.9 66.4273C18.8 66.4273 18.9 66.0273 19 65.8273L19.3 65.2273L18.2 67.5273L16.7 65.0273C15.8 63.3273 15 61.8273 14.3 60.3273ZM3.6 43.2273L3.5 42.9273L4 43.3273L3.6 43.2273ZM2.9 42.5273L3.1 42.9273C3 42.9273 2.9 42.7273 2.9 42.5273ZM4.8 46.2273C4.8 46.0273 4.7 45.8273 4.6 45.7273L4.8 46.2273ZM1.7 51.5273L3.3 52.4273L1.7 51.3273V51.5273Z" fill="white"/>
<path d="M122.3 45.0273L117.7 29.1273H121.5L124.3 40.0273L127 29.1273H130.5L125.9 45.0273V52.9273H122.3V45.0273Z" fill="white"/>
<path d="M131.1 34.8273C131.1 31.0273 133 28.8273 136.6 28.8273C140.2 28.8273 142.1 31.0273 142.1 34.8273V47.2273C142.1 51.0273 140.2 53.2273 136.6 53.2273C133 53.2273 131.1 51.0273 131.1 47.2273V34.8273ZM134.8 47.4273C134.8 49.1273 135.5 49.7273 136.7 49.7273C137.9 49.7273 138.6 49.1273 138.6 47.4273V34.6273C138.6 32.9273 137.9 32.3273 136.7 32.3273C135.5 32.3273 134.8 32.9273 134.8 34.6273V47.4273Z" fill="white"/>
<path d="M147.9 29.1273V47.4273C147.9 49.1273 148.6 49.7273 149.8 49.7273C150.9 49.7273 151.7 49.1273 151.7 47.4273V29.1273H155.1V47.2273C155.1 51.0273 153.3 53.2273 149.7 53.2273C146.1 53.2273 144.3 51.0273 144.3 47.2273V29.1273H147.9Z" fill="white"/>
<path d="M160.8 35.7273V52.9273H157.5V29.1273H162.1L165.8 43.4273V29.1273H169V52.9273H165.3L160.8 35.7273Z" fill="white"/>
<path d="M177 39.6273H182.1V47.2273C182.1 51.0273 180.3 53.2273 176.7 53.2273C173.1 53.2273 171.3 51.0273 171.3 47.2273V34.8273C171.3 31.0273 173.1 28.8273 176.7 28.8273C180.3 28.8273 182.1 31.0273 182.1 34.8273V37.1273H178.7V34.5273C178.7 32.8273 178 32.2273 176.8 32.2273C175.7 32.2273 174.9 32.8273 174.9 34.5273V47.4273C174.9 49.1273 175.6 49.7273 176.8 49.7273C177.9 49.7273 178.7 49.1273 178.7 47.4273V43.0273H177V39.6273Z" fill="white"/>
<path d="M100 64.4273L99 73.5273H95.5L93.6 56.4273H96.2L97.6 69.8273L98.8 56.4273H101.3L102.6 69.9273L104 56.4273H106.2L104.4 73.5273H100.9L100 64.4273Z" fill="white"/>
<path d="M110.1 63.6273H113.7V66.1273H110.1V71.0273H114.6V73.5273H107.5V56.4273H114.6V58.8273H110.1V63.6273Z" fill="white"/>
<path d="M124 60.3273V60.9273C124 62.6273 123.5 63.8273 122.3 64.3273C123.7 64.8273 124.2 66.2273 124.2 68.0273V69.4273C124.2 72.1273 122.9 73.4273 120.3 73.4273H116.2V56.4273H120.1C122.8 56.4273 124 57.7273 124 60.3273ZM118.8 58.8273V63.3273H119.8C120.8 63.3273 121.4 62.8273 121.4 61.5273V60.5273C121.4 59.3273 121 58.8273 120.1 58.8273H118.8ZM118.8 65.8273V71.0273H120.3C121.2 71.0273 121.6 70.6273 121.6 69.3273V67.8273C121.6 66.2273 121.1 65.7273 119.9 65.7273L118.8 65.8273Z" fill="white"/>
<path d="M131.3 68.5273L133 56.4273H136.6V73.5273H134.2V61.2273L132.4 73.5273H130L128 61.4273V73.5273H125.7V56.4273H129.4L131.3 68.5273Z" fill="white"/>
<path d="M146.9 73.5273H144.3L143.8 70.4273H140.6L140.1 73.5273H137.7L140.4 56.4273H144.2L146.9 73.5273ZM141 68.1273H143.5L142.3 59.5273L141 68.1273Z" fill="white"/>
<path d="M151.6 56.2273C154.1 56.2273 155.4 57.8273 155.4 60.5273V61.0273H153V60.3273C153 59.1273 152.5 58.6273 151.7 58.6273C150.9 58.6273 150.4 59.1273 150.4 60.3273C150.4 63.8273 155.5 64.5273 155.5 69.4273C155.5 72.1273 154.2 73.7273 151.6 73.7273C149 73.7273 147.7 72.1273 147.7 69.4273V68.3273H150.1V69.5273C150.1 70.7273 150.6 71.1273 151.4 71.1273C152.2 71.1273 152.7 70.6273 152.7 69.5273C152.7 66.0273 147.6 65.3273 147.6 60.4273C147.8 57.8273 149.1 56.2273 151.6 56.2273Z" fill="white"/>
<path d="M156.2 56.4273H164.2V58.8273H161.5V73.5273H158.9V58.8273H156.2V56.4273Z" fill="white"/>
<path d="M167.9 63.6273H171.5V66.1273H167.9V71.0273H172.4V73.5273H165.4V56.4273H172.4V58.8273H167.9V63.6273Z" fill="white"/>
<path d="M179.5 73.5273C179.4 73.1273 179.3 72.8273 179.3 71.4273V68.7273C179.3 67.1273 178.8 66.5273 177.6 66.5273H176.7V73.5273H174V56.4273H177.9C180.6 56.4273 181.7 57.7273 181.7 60.3273V61.6273C181.7 63.3273 181.2 64.5273 180 65.1273C181.3 65.6273 181.7 67.0273 181.7 68.7273V71.4273C181.7 72.1273 181.7 72.8273 182 73.5273H179.5ZM176.6 58.8273V64.1273H177.6C178.6 64.1273 179.2 63.6273 179.2 62.3273V60.6273C179.2 59.4273 178.8 58.9273 177.9 58.9273L176.6 58.8273Z" fill="white"/>
<path d="M150.4 88.0273V90.3273C150.4 93.0273 149.1 94.6273 146.5 94.6273C143.9 94.6273 142.6 93.0273 142.6 90.3273V81.4273C142.6 78.7273 143.9 77.1273 146.5 77.1273C149.1 77.1273 150.4 78.7273 150.4 81.4273V83.0273H147.9V81.2273C147.9 80.0273 147.4 79.5273 146.6 79.5273C145.8 79.5273 145.3 80.0273 145.3 81.2273V90.4273C145.3 91.6273 145.8 92.0273 146.6 92.0273C147.4 92.0273 147.9 91.5273 147.9 90.4273V88.0273H150.4Z" fill="white"/>
<path d="M160.3 94.4273H157.7L157.2 91.3273H154L153.5 94.4273H151.1L153.8 77.3273H157.6L160.3 94.4273ZM154.4 89.0273H156.9L155.6 80.4273L154.4 89.0273Z" fill="white"/>
<path d="M167.1 89.4273L168.8 77.3273H172.4V94.4273H169.9V82.1273L168.2 94.4273H165.7L163.8 82.3273V94.4273H161.5V77.3273H165.1L167.1 89.4273Z" fill="white"/>
<path d="M182 81.5273V83.7273C182 86.4273 180.7 87.9273 178.1 87.9273H176.9V94.3273H174.3V77.3273H178.1C180.7 77.3273 182 78.8273 182 81.5273ZM176.9 79.7273V85.5273H178.1C178.9 85.5273 179.4 85.1273 179.4 83.9273V81.3273C179.4 80.1273 178.9 79.7273 178.1 79.7273H176.9Z" fill="white"/>
<path d="M209.9 53.8273C209.2 58.1273 208.3 63.9273 207.9 66.6273C207.4 69.3273 206.9 72.6273 206.6 74.1273C206.4 75.6273 206.1 77.4273 205.9 78.2273C205.8 78.9273 205.5 80.2273 205.4 80.8273C205.3 81.5273 205 83.4273 204.9 84.9273C204.2 90.3273 203.7 91.8273 202.7 93.2273C202.4 93.6273 202.3 93.6273 202.2 93.3273C202 93.0273 201.9 93.0273 201.8 93.2273C201.5 93.7273 201 93.6273 201 93.2273C201 92.7273 200.5 92.7273 200.3 93.2273C200 93.6273 200 93.6273 199.9 93.2273C199.8 92.9273 199.6 92.8273 199.3 93.0273C199.2 93.1273 197.7 93.2273 196.2 93.2273C193.5 93.3273 193.5 93.3273 193.1 92.7273C192.8 92.2273 192.6 91.6273 192.6 90.8273C192.6 88.5273 193.4 81.5273 194.1 77.2273C195.5 69.9273 196.5 63.4273 197.1 59.4273C197.5 57.2273 198 53.5273 198.6 51.2273C199 48.8273 199.3 46.9273 199.3 46.8273C199.3 46.8273 199.1 47.0273 198.8 47.2273C198 48.0273 197.2 48.3273 197.1 48.0273C197 47.9273 196.7 47.8273 196.6 47.8273C196.3 47.8273 195.9 47.6273 195.7 47.3273C195.5 47.1273 195.4 47.0273 195.4 47.1273C195.4 47.2273 195.2 47.2273 195.1 47.1273C194.9 46.9273 194.1 46.6273 193.4 46.6273C191.8 46.2273 188.9 45.2273 188.7 44.9273C188.3 44.4273 188.8 43.9273 191.9 40.6273C195.8 36.5273 201.7 29.7273 202 28.8273C202.7 27.0273 202.6 27.1273 203.9 27.2273C204.6 27.3273 205.6 27.6273 206.3 27.9273C206.9 28.3273 207.5 28.4273 207.6 28.3273C207.8 28.1273 208.1 28.3273 208.5 28.8273C209.1 29.3273 209.2 29.3273 209.3 28.9273C209.4 28.5273 209.6 28.5273 210.5 28.7273C211.1 28.8273 211.4 29.0273 211.4 29.2273C211.4 29.6273 211.4 29.6273 211.7 29.3273C211.9 28.9273 212 28.9273 212.2 29.3273C213.1 30.4273 212.4 37.9273 209.9 53.8273ZM201.2 81.1273C201.2 80.9273 201.1 81.0273 201.1 81.4273C201.1 81.8273 201.2 81.9273 201.2 81.8273C201.3 81.6273 201.3 81.2273 201.2 81.1273ZM204.5 63.4273C204.5 63.2273 204.3 63.1273 204.2 63.2273C204 63.3273 204 63.5273 204.1 63.6273C204.3 63.8273 204.5 63.8273 204.5 63.4273Z" fill="white"/>
<path d="M251.2 48.9273C249.6 51.2273 248.2 53.2273 248.1 53.3273C247.9 53.3273 247.9 53.4273 247.9 53.5273C247.9 53.7273 247.2 55.0273 246.2 56.4273C244 59.8273 243.7 60.2273 242.4 62.4273C241.2 64.5273 239 68.3273 239 68.4273C239 68.5273 238.5 69.4273 237.8 70.6273C236.7 72.6273 236.4 73.2273 229.2 87.7273C225.2 95.9273 224 97.8273 224 96.6273C224 96.4273 224.3 95.8273 224.5 95.3273C224.9 94.8273 225.1 94.4273 225.1 94.3273C225.1 94.1273 225.5 93.4273 225.9 92.6273C226.3 91.7273 226.5 91.0273 226.5 91.0273C226.4 91.0273 226.5 90.8273 226.7 90.6273C226.9 90.3273 227.3 89.6273 227.6 88.9273C227.9 88.2273 228.1 87.4273 228.2 87.3273C228.4 87.1273 228.5 86.9273 228.4 86.9273C228.2 86.9273 226.9 88.8273 226.9 89.0273C226.9 89.4273 225.3 92.3273 225 92.8273C224.7 93.1273 224.5 93.3273 224.7 93.3273C225 93.3273 224 95.5273 223.4 95.8273C223.1 96.1273 223 96.0273 222.7 95.5273C222.5 95.1273 222.2 95.0273 222.1 95.0273C221.9 95.0273 221.7 94.8273 221.7 94.6273C221.7 94.3273 223.3 90.9273 224 89.8273C224.1 89.4273 224.4 88.9273 224.5 88.5273C224.7 88.1273 224.9 87.9273 225 87.9273C225.1 87.9273 225.2 87.8273 225.2 87.5273C225.1 87.1273 226.3 84.6273 227.9 81.7273C228.1 81.3273 228.5 80.4273 228.8 79.8273C230.1 77.0273 231.5 74.0273 231.8 73.9273C231.9 73.9273 232 73.7273 232 73.5273C232 73.1273 233.6 69.9273 234.4 68.9273C234.6 68.5273 234.9 68.2273 234.9 68.0273C234.9 67.9273 234.9 67.8273 235.1 67.8273C235.3 67.8273 235.8 66.4273 236 65.8273C236 65.2273 236.6 64.8273 237.3 64.8273C237.8 64.7273 237.8 64.7273 237.4 64.4273C236.9 64.0273 236.9 64.0273 240.3 58.1273C240.8 57.5273 241.3 56.5273 241.5 56.2273L242 55.5273L241.4 56.0273C241.1 56.4273 240.9 56.6273 240.9 56.7273C240.9 56.8273 240.8 57.0273 240.5 57.2273C240.3 57.4273 240 58.0273 239.6 58.7273C239.3 59.2273 239 59.8273 238.9 59.8273C238.7 59.8273 238.7 60.0273 238.7 60.3273C238.7 60.5273 238.3 60.9273 238 61.3273C237.7 61.7273 237.5 62.0273 237.6 62.1273C237.6 62.2273 237.6 62.6273 237.3 62.8273C237 63.1273 236.8 63.2273 236.4 63.1273C235.9 63.0273 235.9 63.0273 236 63.6273C236.2 64.5273 236 65.2273 235.6 65.0273C235.4 65.0273 235.3 65.0273 235.4 65.1273C235.4 65.1273 235.3 65.5273 235.2 65.8273C235 66.3273 234.9 66.3273 234.7 66.0273C234.6 65.8273 234.5 65.8273 234.5 66.2273C234.5 66.5273 234.5 66.7273 234.5 66.8273C234.5 66.9273 234.3 67.0273 234.1 67.0273C233.9 67.0273 233.7 67.0273 233.7 67.2273C233.7 67.4273 233.5 67.5273 233.2 67.5273C232.8 67.5273 232.7 67.6273 233 67.6273C233.3 67.7273 233.5 68.0273 233.5 68.2273C233.7 68.6273 233.6 68.6273 233.3 68.4273C233.1 68.2273 232.9 68.2273 232.7 68.9273C232.5 69.4273 232.3 69.8273 232.3 70.0273C232.3 70.0273 232.1 70.3273 231.9 70.5273C231.5 71.0273 231.5 71.4273 231.8 71.2273C231.9 71.1273 232.1 71.2273 232.1 71.5273C232.1 71.7273 231.9 71.8273 231.8 71.7273C231.7 71.7273 231.6 71.8273 231.6 72.0273C231.6 72.3273 231.5 72.4273 231.4 72.4273C231.2 72.4273 231.1 72.4273 231.1 72.6273C231.1 72.7273 230.9 72.8273 230.9 72.8273C230.4 72.7273 230.3 72.8273 230.7 73.2273C231.1 73.6273 231 74.0273 230.2 74.3273C229.9 74.4273 229.7 74.6273 229.7 74.7273C229.7 74.9273 229.8 74.9273 230.1 74.8273C230.3 74.8273 230.5 74.8273 230.5 74.9273C230.4 75.2273 229.8 76.1273 229.6 76.1273C229.1 76.2273 229.1 76.2273 229.3 76.5273C229.5 76.8273 229.5 77.0273 229.2 77.5273C229 77.9273 228.7 78.5273 228.7 78.9273C228.5 79.3273 228.2 79.6273 227.9 79.8273C227.5 79.9273 227.3 80.0273 227.3 80.1273C227.3 80.2273 227.5 80.1273 227.7 80.1273C227.9 80.0273 228 80.1273 228 80.3273C227.9 80.8273 227.3 82.1273 227.1 82.1273C227 82.1273 226.9 82.4273 226.8 82.8273C226.7 83.3273 226.6 83.4273 226.4 83.3273C226.1 82.9273 226.1 82.9273 225.9 83.3273C225.8 83.4273 225.7 83.7273 225.7 83.8273C225.7 83.9273 225.7 83.9273 225.8 83.7273C225.9 83.5273 226 83.5273 226.1 83.5273C226.3 83.6273 226.3 83.9273 226.1 84.0273C225.3 85.7273 224.9 86.3273 224.7 86.2273C224.4 86.1273 224.2 86.4273 224.1 86.7273C223.8 87.4273 223.8 87.6273 224.1 87.3273C224.2 87.2273 224.3 87.3273 224.2 87.4273C224.2 87.6273 224.1 87.7273 224 87.7273C223.6 87.7273 223.4 88.3273 223.5 88.6273C223.6 88.7273 223.5 89.1273 223.4 89.4273C223.2 89.9273 223 89.9273 222.5 89.9273C222 89.7273 222 89.8273 222.1 90.1273C222.2 90.6273 220.7 93.8273 220.4 93.8273C220.3 93.8273 220.2 93.6273 220.2 93.5273C220.2 93.2273 220 93.1273 219.9 93.1273C219.8 93.1273 219.6 92.9273 219.6 92.7273C219.6 92.2273 219.2 92.2273 219.1 92.7273C219 93.1273 218.9 93.1273 218.6 92.6273C218.4 92.4273 218.3 92.3273 218.4 92.6273C218.5 92.9273 218.5 92.9273 218.3 92.5273C218.1 92.3273 217.8 92.1273 217.8 92.1273C217.3 92.0273 216.1 91.0273 216.1 90.9273C216.1 90.7273 215.9 90.7273 215.7 90.7273C215.4 90.7273 215.2 90.5273 215.2 90.4273C215.2 90.2273 215.2 90.0273 215.2 89.9273C215.2 89.7273 215 89.5273 215 89.5273C214.8 89.3273 214.9 88.9273 216.3 86.1273C217.2 84.1273 217.7 83.2273 219 79.8273C219.5 78.8273 224.1 69.6273 225 67.6273C225.8 66.2273 227.4 63.1273 228.5 61.2273C229 60.3273 229.8 59.0273 230.1 58.4273C230.5 57.8273 231.4 56.2273 232 55.1273C233.7 52.3273 233.7 52.4273 235.3 49.8273C236 48.6273 236.9 47.1273 237.2 46.7273C237.6 46.2273 238.5 44.7273 239.4 43.4273C240.2 42.1273 240.9 41.1273 240.9 41.0273C240.8 40.9273 239 41.4273 236.9 42.0273C232 43.4273 221.4 46.1273 220.6 46.0273C220.3 46.0273 219.6 45.5273 218.6 44.5273C217.9 43.7273 216.9 42.9273 216.6 42.6273C215.3 41.7273 213.1 39.6273 212.9 39.2273C212.7 38.9273 212.8 38.5273 212.9 38.2273C213.3 37.6273 214.3 37.2273 221.2 35.5273C226.1 34.3273 229.8 33.2273 234.2 31.8273C242.4 29.1273 245.6 28.3273 247.9 28.1273L249.2 28.0273L251.7 30.4273C253.1 31.8273 254.2 33.0273 254.2 33.1273C254.2 33.2273 254.6 33.5273 254.9 33.7273C255.7 34.0273 256.8 35.2273 257.4 36.2273C257.9 38.0273 256.7 40.6273 251.2 48.9273ZM220.6 90.9273C220.6 90.8273 220.5 90.7273 220.4 90.8273C220.2 90.9273 220.2 91.1273 220.2 91.2273C220.2 91.3273 220.2 91.4273 220.4 91.3273C220.5 91.2273 220.6 91.0273 220.6 90.9273ZM221.6 88.7273C221.5 88.5273 221.4 88.6273 221.4 89.0273C221.4 89.3273 221.5 89.4273 221.6 89.2273C221.8 88.9273 221.8 88.7273 221.6 88.7273ZM223.7 92.2273C223.4 92.2273 223.2 92.8273 223.3 93.2273C223.4 93.3273 223.2 93.5273 223 93.5273C222.6 93.7273 222.5 94.3273 222.9 94.3273C223.1 94.3273 223.2 94.2273 223 94.1273C223 94.0273 223.1 93.7273 223.4 93.5273C223.9 92.8273 224.1 92.2273 223.7 92.2273ZM225 90.4273C225 90.0273 224.9 89.9273 224.8 89.9273C224.5 89.9273 224.4 90.6273 224.7 90.9273C225 91.0273 225 91.0273 225 90.4273ZM226.7 82.2273C226.6 82.1273 226.4 82.2273 226.4 82.5273C226.2 82.8273 226.2 82.9273 226.5 82.6273C226.7 82.4273 226.8 82.2273 226.7 82.2273ZM227.4 80.6273C227.4 80.4273 227.4 80.4273 227.3 80.4273C227.2 80.4273 227.1 80.4273 227 80.6273C226.9 80.8273 227 80.9273 227.1 80.9273C227.3 80.9273 227.4 80.8273 227.4 80.6273ZM228.3 78.4273C228.1 78.4273 228 78.4273 228.1 78.5273C228.2 78.6273 228.2 78.8273 228 79.0273C227.9 79.2273 227.9 79.4273 227.9 79.4273C228 79.4273 228.1 79.2273 228.3 79.0273C228.5 78.8273 228.5 78.5273 228.3 78.4273ZM230.6 82.5273C230.2 82.8273 229.6 84.0273 229.5 84.7273C229.4 84.9273 229.3 85.1273 229.3 85.2273C228.8 85.6273 228.3 86.8273 228.5 86.8273C228.7 86.8273 228.9 86.6273 228.9 86.4273C228.9 86.3273 229 85.9273 229.4 85.5273C229.7 85.2273 229.8 84.9273 229.7 84.9273C229.6 84.9273 229.6 84.7273 229.9 84.6273C230 84.4273 230.2 84.1273 230.2 84.0273C230.2 83.9273 230.4 83.4273 230.7 83.0273C230.9 82.4273 230.9 82.2273 230.6 82.5273ZM229.3 69.1273C229.3 69.4273 229.3 69.5273 229.4 69.5273C229.5 69.3273 229.5 69.1273 229.3 69.1273C229.3 68.8273 229.3 68.8273 229.3 69.1273ZM229.8 72.6273C229.8 72.5273 229.7 72.4273 229.5 72.3273C229.3 72.2273 229.3 72.3273 229.3 72.4273C229.3 72.6273 229.3 72.7273 229.5 72.7273C229.7 72.7273 229.8 72.6273 229.8 72.6273ZM231.6 80.5273C231.4 80.6273 231.2 80.7273 231.2 80.9273C231.2 81.0273 231 81.4273 230.8 81.7273C230.5 82.2273 230.6 82.2273 231 81.8273C231.2 81.5273 231.5 81.1273 231.5 80.9273C231.8 80.5273 231.8 80.4273 231.6 80.5273ZM231.5 69.0273C231.4 69.0273 231.2 69.0273 231 69.2273C230.8 69.5273 230.8 69.5273 231.2 69.3273C231.4 69.3273 231.6 69.1273 231.5 69.0273ZM232.1 76.1273C232.1 75.9273 231.9 75.8273 231.8 75.8273C231.5 75.8273 231.4 75.9273 231.4 76.1273C231.4 76.2273 231.5 76.3273 231.8 76.3273C231.9 76.3273 232.1 76.2273 232.1 76.1273ZM232 79.5273C232 79.3273 231.8 79.5273 231.8 79.8273C231.7 80.2273 231.7 80.3273 231.8 80.2273C232 79.9273 232.1 79.6273 232 79.5273ZM238.6 66.6273C238.3 66.8273 238.1 67.1273 238 67.3273C238 67.9273 237.6 68.5273 237.5 68.3273C237.4 68.3273 237.3 68.3273 237.3 68.4273C237.5 68.8273 237 69.8273 236.6 70.4273C236.3 70.8273 236.1 71.2273 236.1 71.4273C236.1 71.7273 235.9 71.9273 235.7 72.0273C235.5 72.1273 235.4 72.3273 235.4 72.4273C235.3 72.5273 235 73.0273 234.8 73.8273C234.5 74.4273 234.3 75.0273 234.3 75.0273C234.3 75.1273 233.9 75.5273 233.8 76.1273C233.4 76.6273 233.2 77.1273 233.1 77.3273C233.1 77.5273 233 77.9273 232.7 78.3273C232.3 79.0273 232.3 79.0273 232.8 78.7273C233.1 78.4273 233.3 78.0273 233.5 77.5273C233.6 77.1273 233.7 76.7273 233.7 76.6273C233.6 76.5273 233.8 76.3273 234.1 76.1273C234.4 75.9273 234.5 75.7273 234.4 75.7273C234.3 75.7273 234.4 75.4273 234.7 75.0273C235.2 74.5273 235.8 73.1273 235.6 73.1273C235.6 73.1273 236 72.6273 236.3 72.0273C236.7 71.4273 236.9 70.9273 236.8 70.9273C236.7 70.9273 236.8 70.7273 236.9 70.7273C237 70.6273 237.3 70.1273 237.6 69.6273C237.8 69.1273 238.1 68.3273 238.4 68.0273C238.6 67.6273 238.9 67.1273 239 66.7273C239.2 66.1273 239.1 66.1273 238.6 66.6273ZM232.8 73.3273C232.8 73.5273 233 73.4273 233.3 73.0273C233.6 72.6273 233.6 72.6273 233.2 72.9273C233 73.1273 232.8 73.3273 232.8 73.3273ZM235 70.4273C235.3 70.1273 235.3 70.1273 234.9 70.1273C234.7 70.1273 234.4 70.2273 234.4 70.4273C234.1 70.7273 234.5 70.7273 235 70.4273ZM235.7 61.7273C235.7 61.4273 235.3 61.2273 235.2 61.4273C234.9 61.5273 235.1 61.9273 235.5 61.9273C235.5 62.0273 235.7 61.9273 235.7 61.7273ZM235.7 69.3273C235.7 69.3273 235.9 69.1273 235.9 68.9273C235.9 68.4273 235.5 68.3273 235.5 68.8273C235.4 69.0273 235.5 69.3273 235.7 69.3273ZM236.1 62.7273C236.1 62.5273 236 62.4273 235.9 62.4273C235.7 62.4273 235.7 62.5273 235.7 62.7273C235.7 62.8273 235.7 62.9273 235.9 62.9273C236 62.9273 236.1 62.8273 236.1 62.7273ZM235.7 64.3273C235.7 64.1273 235.7 64.2273 235.7 64.3273C235.7 64.7273 235.7 64.8273 235.7 64.8273C235.8 64.6273 235.9 64.5273 235.7 64.3273ZM236.3 67.1273C236.3 68.0273 236.6 67.8273 236.7 66.8273C236.7 66.4273 236.6 66.3273 236.5 66.3273C236.4 66.4273 236.3 66.8273 236.3 67.1273ZM236.9 62.3273C236.7 62.5273 236.6 62.7273 236.7 62.7273C236.9 62.7273 237.1 62.6273 237.2 62.4273C237.4 62.1273 237.2 62.0273 236.9 62.3273ZM240.6 63.4273C240.4 63.4273 239.5 65.1273 239.5 65.3273C239.5 65.4273 239.5 65.5273 239.3 65.5273C239.1 65.5273 239.1 65.6273 239.1 65.8273C239.1 66.0273 239.2 66.0273 239.5 65.8273C239.6 65.6273 239.7 65.4273 239.7 65.3273C239.6 65.2273 239.7 64.9273 240 64.6273C240.6 63.6273 240.7 63.4273 240.6 63.4273ZM241 62.4273C240.6 62.9273 240.5 63.0273 240.8 62.9273C241 62.8273 241.3 62.5273 241.3 62.2273C241.8 61.5273 241.6 61.5273 241 62.4273ZM242.5 54.9273C242.8 54.4273 242.3 54.4273 242 55.0273C241.6 55.4273 241.7 55.5273 242 55.5273C242.2 55.5273 242.4 55.4273 242.4 55.4273C242.4 55.3273 242.5 55.0273 242.5 54.9273ZM243.6 58.7273C243.6 58.6273 243.4 58.5273 243.3 58.5273C243.2 58.5273 243.1 58.6273 243.2 58.7273C243.2 58.8273 243 59.1273 242.8 59.4273L242.5 59.9273L243 59.4273C243.3 59.1273 243.6 58.8273 243.6 58.7273ZM243.6 52.7273C243.4 52.8273 243.2 53.2273 243 53.6273C242.7 54.3273 242.7 54.3273 243.1 53.9273C243.3 53.6273 243.5 53.3273 243.6 53.0273C243.8 52.7273 243.8 52.6273 243.6 52.7273ZM245.5 55.1273C245.3 55.2273 245.2 55.4273 245.2 55.4273C245.3 55.5273 245.1 55.9273 244.7 56.3273L244.2 57.2273L244.7 56.5273C245.1 56.1273 245.4 55.7273 245.6 55.4273C245.9 55.0273 245.9 55.0273 245.5 55.1273ZM244.7 50.9273C244.8 51.1273 245.3 50.6273 245.7 50.0273C245.9 49.6273 245.9 49.6273 245.2 50.1273C244.9 50.3273 244.6 50.7273 244.7 50.9273ZM246.3 54.2273C246.2 54.0273 246 53.9273 245.9 53.9273C245.7 53.9273 245.7 54.0273 245.8 54.2273C245.9 54.3273 246.1 54.5273 246.2 54.5273C246.3 54.5273 246.4 54.3273 246.3 54.2273ZM248.3 45.7273C248.1 45.8273 248 46.0273 248 46.1273C248 46.5273 248.2 46.4273 248.3 45.9273C248.5 45.7273 248.4 45.6273 248.3 45.7273ZM249.2 45.0273C249.2 44.8273 249.1 44.7273 249 44.8273C248.8 44.9273 248.8 45.1273 248.8 45.2273C249 45.5273 249.2 45.4273 249.2 45.0273Z" fill="white"/>
<path d="M268.3 33.0273C268.3 33.0273 268.2 33.0273 268.1 33.0273C267.8 33.0273 267.5 33.0273 267.5 33.1273C267.4 33.1273 267.5 33.2273 267.8 33.2273C267.9 33.2273 268.1 33.2273 268.1 33.2273C268.1 33.2273 268 33.2273 267.9 33.3273C267.7 33.3273 266.3 33.5273 266.2 33.5273C266.2 33.5273 266.1 34.0273 266 34.6273C265.9 35.2273 265.8 36.2273 265.7 36.8273C265.6 37.4273 265.5 38.1273 265.5 38.4273C265.5 38.7273 265.3 39.9273 265.1 41.0273C265 42.1273 264.8 43.2273 264.7 43.4273C264.6 43.6273 264.6 44.1273 264.5 44.5273C264.4 45.4273 264.3 45.8273 264.1 45.9273C264.1 46.0273 263.9 46.1273 263.9 46.0273C263.8 46.1273 263.7 46.1273 263.7 46.0273C263.7 46.0273 263.7 46.0273 263.6 46.0273C263.6 46.0273 263.5 46.0273 263.4 46.0273C263.2 46.0273 262.3 46.0273 262.3 45.9273C262.2 45.7273 262.2 45.4273 262.2 45.0273C262.3 44.4273 262.6 42.2273 263 40.1273C263.1 39.5273 263.2 38.8273 263.2 38.8273C263.2 38.3273 263.9 34.5273 264 34.0273C264 33.9273 264 33.9273 263.9 33.9273C263.7 33.9273 262 34.2273 261.2 34.4273C260.7 34.5273 260.3 34.5273 260.2 34.5273C260.1 34.5273 260.1 34.5273 260.2 34.4273C260.1 34.4273 260.1 34.4273 260.1 34.4273V34.3273C260 34.3273 260 34.3273 260 34.2273C260 34.1273 260 34.0273 259.9 34.0273C259.8 33.9273 259.5 33.2273 259.5 33.1273C259.5 33.0273 259.7 32.9273 260 32.8273C260.5 32.7273 262.8 32.3273 263.6 32.2273C263.7 32.2273 264.1 32.1273 264.5 32.1273C264.9 32.1273 265.4 32.0273 265.5 32.0273C265.6 32.0273 265.9 32.0273 266.1 31.9273C266.5 31.9273 267.5 31.8273 268.2 31.7273C268.6 31.7273 268.7 31.7273 268.7 31.7273H268.8C268.9 31.7273 269 31.9273 269 32.0273C269 32.0273 269 32.1273 269 32.3273C269 32.6273 269 32.6273 269 32.5273C268.9 32.5273 268.5 32.5273 268.5 32.5273C268.5 32.5273 268.5 32.6273 268.3 32.6273C268.2 32.6273 268.1 32.6273 268.1 32.6273H268C268 32.6273 267.9 32.6273 267.8 32.6273C267.8 32.6273 267.7 32.6273 267.6 32.6273H267.5H267.4C267.3 32.6273 267.3 32.6273 267.3 32.6273C267.3 32.6273 267.3 32.6273 267.2 32.6273C267.2 32.6273 267.1 32.6273 267 32.6273C266.9 32.6273 266.9 32.6273 266.8 32.6273C266.8 32.6273 266.8 32.7273 266.8 32.6273C266.8 32.6273 266.7 32.6273 266.6 32.6273H266.5H266.4C266.4 32.6273 266.4 32.6273 266.3 32.6273C266.2 32.6273 266.3 32.7273 266.6 32.6273C266.7 32.6273 266.8 32.6273 266.8 32.6273C266.8 32.6273 266.9 32.6273 267 32.6273C267.1 32.6273 267.2 32.6273 267.2 32.6273C267.2 32.6273 267.2 32.6273 267.3 32.6273C267.4 32.6273 267.4 32.6273 267.3 32.6273C267.4 32.6273 267.4 32.6273 267.4 32.6273C267.4 32.6273 267.4 32.6273 267.5 32.6273C267.6 32.6273 267.6 32.6273 267.7 32.6273C267.8 32.6273 267.7 32.6273 267.7 32.7273V32.8273C267.7 32.8273 267.8 32.8273 267.8 32.7273C267.8 32.6273 267.8 32.6273 267.9 32.6273C268 32.6273 268 32.6273 268 32.7273C268.1 32.9273 268.1 32.9273 268.3 33.0273C268.3 32.9273 268.4 32.9273 268.3 33.0273ZM264.2 41.0273C264.2 40.9273 264.1 41.0273 264.1 41.1273C264.1 41.2273 264.1 41.3273 264.1 41.2273C264.1 41.2273 264.2 41.1273 264.2 41.0273C264.2 41.1273 264.2 41.1273 264.2 41.0273ZM264.6 38.0273C264.6 38.1273 264.6 38.1273 264.6 38.0273C264.7 38.1273 264.7 38.0273 264.6 38.0273ZM264.7 37.6273C264.6 37.7273 264.6 37.7273 264.7 37.6273C264.7 37.7273 264.7 37.7273 264.7 37.6273ZM266.5 33.2273C266.4 33.2273 266.4 33.2273 266.5 33.2273V33.2273ZM266.7 33.2273C266.6 33.2273 266.6 33.2273 266.7 33.2273C266.6 33.2273 266.7 33.2273 266.7 33.2273ZM266.8 33.2273C266.7 33.2273 266.7 33.2273 266.8 33.2273V33.2273ZM267.2 33.1273C267.1 33.1273 266.9 33.1273 266.9 33.1273C266.9 33.2273 266.9 33.2273 267.2 33.1273C267.2 33.2273 267.3 33.1273 267.2 33.1273ZM267.4 32.3273C267.4 32.4273 267.5 32.4273 267.4 32.3273C267.4 32.3273 267.6 32.3273 267.7 32.3273C267.9 32.3273 268 32.3273 268.1 32.3273C268.2 32.3273 268.3 32.3273 268.3 32.2273C268.3 32.2273 268.2 32.2273 267.6 32.2273C267.4 32.2273 267.4 32.3273 267.4 32.3273ZM267.5 32.9273C267.5 32.8273 267.5 32.8273 267.5 32.9273C267.5 32.8273 267.5 32.8273 267.5 32.9273ZM268.1 32.8273H268C267.9 32.8273 267.9 32.9273 268.1 32.8273C268 32.9273 268.1 32.8273 268.1 32.8273ZM268.1 33.2273C268 33.2273 267.9 33.2273 267.9 33.2273H268.1C268.1 33.1273 268.1 33.1273 268.1 33.2273ZM268.4 32.7273C268.3 32.7273 268.2 32.7273 268.2 32.7273C268.2 32.7273 268.6 32.6273 268.6 32.7273C268.6 32.7273 268.5 32.7273 268.4 32.7273ZM268.9 32.9273C268.9 32.9273 268.9 32.9273 268.7 32.9273C268.6 32.9273 268.5 32.9273 268.5 32.9273C268.5 32.9273 268.5 32.9273 268.6 32.9273C268.7 32.9273 268.7 32.9273 268.7 32.8273C268.7 32.7273 268.7 32.7273 268.8 32.7273C268.9 32.7273 268.9 32.7273 268.9 32.8273C268.9 32.8273 268.9 32.8273 268.9 32.9273ZM268.7 32.2273C268.7 32.2273 268.8 32.3273 268.7 32.2273C268.7 32.3273 268.6 32.3273 268.7 32.2273C268.6 32.3273 268.5 32.3273 268.5 32.3273C268.5 32.2273 268.6 32.2273 268.7 32.2273ZM269.2 32.9273C269.2 32.8273 269.2 32.8273 269.2 32.9273V32.9273Z" fill="white"/>
<path d="M279 32.0273C278.9 32.9273 278.8 34.2273 278.4 36.5273C278.2 37.4273 278.2 37.7273 278.2 37.8273C278.2 37.9273 278.2 37.9273 278.2 37.9273C278.1 37.9273 278.1 38.1273 278.1 38.3273V38.5273V38.6273C278.1 38.6273 278.1 38.7273 278.1 38.8273C278.1 38.9273 278 39.1273 278 39.2273C278 39.5273 277.9 39.9273 277.8 39.8273C277.8 39.8273 277.8 39.6273 277.8 39.3273C277.8 39.2273 277.8 39.2273 277.8 39.2273C277.8 39.2273 277.7 39.3273 277.7 39.4273V39.5273V39.6273C277.7 39.6273 277.7 39.6273 277.7 39.7273C277.7 39.8273 277.6 39.8273 277.6 39.8273C277.6 39.8273 277.6 39.8273 277.6 39.9273C277.6 40.0273 277.6 40.1273 277.6 40.2273C277.5 40.2273 277.5 40.4273 277.6 40.5273C277.6 40.5273 277.6 40.5273 277.6 40.6273C277.6 40.7273 277.6 40.7273 277.5 40.8273C277.5 40.8273 277.4 40.9273 277.5 40.9273C277.5 40.9273 277.5 40.9273 277.5 41.0273C277.5 41.1273 277.6 41.0273 277.6 40.8273C277.6 40.7273 277.6 40.6273 277.6 40.6273C277.6 40.6273 277.6 40.5273 277.6 40.4273C277.6 40.3273 277.6 40.2273 277.6 40.2273V40.1273C277.6 40.1273 277.6 40.0273 277.6 39.9273C277.6 39.8273 277.6 39.9273 277.6 40.1273C277.6 40.2273 277.6 40.5273 277.5 40.6273C277.4 41.0273 277.4 41.1273 277.4 41.4273C277.4 41.5273 277.4 41.8273 277.3 41.9273C277.3 42.0273 277.3 42.2273 277.3 42.2273L277.2 42.7273C277.1 42.7273 277.1 42.6273 277.2 42.6273C277.2 42.5273 277.3 42.2273 277.3 41.7273C277.3 41.5273 277.3 41.3273 277.3 41.3273C277.3 41.3273 277.2 41.7273 277.2 41.8273C277.2 41.8273 277.2 41.8273 277.2 42.0273C277.2 42.1273 277.2 42.2273 277.2 42.2273C277.2 42.2273 277.2 42.2273 277.2 42.3273V42.4273C277.2 42.4273 277.2 42.5273 277.2 42.6273C277.2 42.7273 277.2 42.7273 277.2 42.7273C277.2 42.7273 277.2 42.8273 277.1 42.9273C277.1 43.1273 277.1 43.3273 277 43.3273C277 43.3273 277 43.3273 276.9 43.3273C276.9 43.3273 276.8 43.3273 276.9 43.1273C276.9 42.9273 276.9 42.8273 276.9 42.8273V42.9273V42.8273C276.9 42.7273 276.9 42.7273 277 42.7273C277.1 42.7273 277.1 42.7273 277.1 42.6273C277.1 42.5273 277 42.4273 277 42.5273C277 42.5273 277 42.5273 276.9 42.5273H276.8C276.8 42.5273 276.8 42.5273 276.8 42.4273C276.8 42.4273 276.8 42.3273 276.8 42.2273V42.1273C276.8 42.1273 276.8 42.1273 276.8 42.0273C276.8 41.9273 276.8 42.0273 276.8 42.0273C276.8 42.0273 276.8 42.0273 276.8 41.9273C276.8 41.9273 276.8 41.8273 276.9 41.8273C276.9 41.8273 276.9 41.7273 276.9 41.6273C276.8 41.5273 276.8 41.5273 276.9 41.5273C277 41.6273 277 41.5273 276.9 41.4273C276.9 41.3273 276.9 41.3273 276.9 41.3273H277V41.2273C277 41.2273 277 41.2273 277 41.1273C277 41.0273 277 40.9273 277 40.9273C277 40.8273 277 40.8273 277.1 40.8273H277.2C277.1 40.8273 277 40.8273 277.1 40.6273V40.5273C277.1 40.5273 277.1 40.5273 277.1 40.4273V40.3273V40.2273V40.0273C277.1 39.9273 277.1 39.9273 277.1 39.9273C277.1 39.9273 277.1 39.9273 277.1 39.7273C277.2 39.5273 277.1 39.4273 277.1 39.4273C277.1 39.4273 277 39.5273 277 39.6273C277 39.8273 277 39.8273 277 39.8273C277 39.7273 277 39.7273 276.9 39.8273C276.9 39.9273 276.9 39.9273 276.9 40.0273C276.9 40.1273 276.9 40.1273 276.9 40.2273C276.9 40.3273 276.9 40.4273 276.9 40.4273C276.9 40.4273 276.9 40.4273 276.9 40.5273C276.9 40.6273 276.9 40.6273 276.9 40.7273C276.9 40.7273 276.9 40.7273 276.9 40.8273C276.9 40.9273 276.9 40.9273 276.9 40.9273C276.9 40.9273 276.9 40.9273 276.9 41.0273C276.9 41.1273 276.9 41.1273 276.9 41.0273C276.9 41.0273 276.9 41.1273 276.8 41.1273C276.7 41.1273 276.7 41.1273 276.8 41.1273C276.9 41.1273 276.8 41.1273 276.8 41.1273L276.7 41.2273C276.7 41.2273 276.7 41.3273 276.7 41.4273V41.5273C276.7 41.5273 276.7 41.5273 276.7 41.6273C276.7 41.7273 276.7 41.7273 276.7 41.6273H276.8C276.8 41.7273 276.8 41.7273 276.8 41.6273C276.7 41.6273 276.7 41.6273 276.7 41.7273C276.7 41.8273 276.7 41.9273 276.7 42.0273C276.7 42.2273 276.6 42.5273 276.6 42.5273C276.6 42.5273 276.6 42.5273 276.5 42.5273C276.4 42.5273 276.3 42.6273 276.3 42.7273C276.3 42.7273 276.3 42.8273 276.2 43.2273V43.3273V43.4273C276.2 43.4273 276.2 43.5273 276.2 43.4273C276.2 43.4273 276.1 43.5273 276.1 43.8273C276.1 43.9273 276.1 44.0273 276 44.0273V43.9273C276 43.9273 276 43.9273 276 43.8273C276 43.7273 275.9 44.1273 275.9 44.1273V44.2273C275.9 44.2273 275.9 44.3273 275.9 44.5273C275.9 44.6273 275.9 44.7273 275.8 44.7273C275.8 44.8273 275.8 45.2273 275.8 45.2273C275.8 45.2273 275.8 45.2273 275.8 45.3273C275.8 45.4273 275.8 45.4273 275.8 45.3273C275.8 45.3273 275.8 45.4273 275.8 45.3273C275.8 45.2273 275.8 45.3273 275.8 45.4273C275.8 45.5273 275.8 45.6273 275.8 45.6273C275.7 45.6273 275.8 45.7273 275.9 45.8273C276 45.8273 276 45.8273 275.9 45.8273C275.8 45.8273 275.8 45.8273 275.8 45.8273C275.8 45.8273 275.8 45.9273 275.7 45.9273C275.6 45.9273 275.6 45.9273 275.5 45.9273C275.4 45.9273 275.4 45.9273 275.3 45.9273C275.2 45.9273 275.2 45.9273 275.2 45.9273C275.2 45.9273 275.2 45.9273 275.2 45.8273C275.2 45.8273 275.2 45.7273 275.2 45.4273C275.2 45.2273 275.2 44.9273 275.3 44.7273C275.3 44.5273 275.3 44.3273 275.3 44.3273C275.3 44.3273 275.3 44.3273 275.3 44.2273C275.2 44.2273 275.2 44.1273 275.3 44.1273H275.4C275.4 44.1273 275.4 44.1273 275.3 44.1273C275.3 44.1273 275.3 44.1273 275.3 44.0273V43.9273C275.3 43.9273 275.4 43.9273 275.4 43.8273C275.4 43.7273 275.4 43.7273 275.3 43.7273C275.3 43.6273 275.3 43.5273 275.3 43.2273C275.3 43.0273 275.3 43.0273 275.4 43.1273C275.4 43.2273 275.4 43.2273 275.4 43.1273V43.0273C275.4 43.0273 275.4 42.7273 275.4 42.6273C275.4 42.6273 275.4 42.6273 275.4 42.5273C275.4 42.5273 275.4 42.3273 275.4 42.0273C275.5 41.1273 275.5 40.9273 275.6 40.5273C275.6 40.2273 275.7 39.3273 275.8 39.0273V38.9273H275.4C275.2 38.9273 274.9 38.9273 274.8 38.9273C274.7 38.9273 274.3 38.9273 274.1 39.0273C273.9 39.1273 273.4 39.1273 273.2 39.1273C273.1 39.1273 272.8 39.1273 272.7 39.1273C272.5 39.1273 272.5 39.1273 272.4 39.7273C272.3 40.1273 272.2 40.8273 272.1 40.8273C272 40.8273 272 40.7273 272 40.7273C272 40.7273 272.1 40.2273 272 40.2273C272 40.2273 272 40.2273 272 40.3273C272 40.4273 272 40.4273 272 40.4273C272 40.4273 272 40.5273 272 40.6273C272.1 40.6273 272.1 40.6273 272 40.6273C272 40.6273 271.9 40.8273 271.9 41.0273V41.1273V41.2273C271.9 41.2273 271.9 41.2273 271.8 41.5273C271.8 41.6273 271.8 41.7273 271.7 41.8273C271.7 41.9273 271.7 41.9273 271.7 42.0273C271.7 42.1273 271.7 42.1273 271.7 42.2273C271.6 42.3273 271.5 42.3273 271.5 42.2273C271.5 42.2273 271.5 42.2273 271.5 42.3273C271.5 42.4273 271.5 42.4273 271.4 42.4273C271.3 42.4273 271.3 42.4273 271.4 42.4273C271.4 42.4273 271.5 42.3273 271.5 42.1273C271.5 42.0273 271.5 41.8273 271.5 41.7273C271.5 41.7273 271.5 41.7273 271.5 41.6273C271.5 41.5273 271.5 41.5273 271.5 41.5273C271.5 41.5273 271.5 41.4273 271.5 41.3273C271.5 41.2273 271.5 41.1273 271.5 41.1273C271.5 41.1273 271.5 40.6273 271.5 40.5273C271.5 40.5273 271.5 40.5273 271.4 40.5273C271.4 40.6273 271.4 40.6273 271.4 40.5273C271.4 40.4273 271.4 40.5273 271.4 40.5273H271.3C271.3 40.5273 271.3 40.5273 271.2 40.5273C271.2 40.6273 271.2 40.6273 271.2 40.6273H271.3C271.3 40.6273 271.3 40.6273 271.2 40.6273C271.1 40.6273 271.1 40.7273 271.1 40.9273V41.0273C271.1 41.0273 271 41.3273 271 41.9273V42.0273C271 42.1273 271 42.4273 270.9 42.4273C271 42.4273 271 42.4273 270.9 42.5273H270.8V42.6273H270.7C270.7 42.6273 270.6 42.6273 270.6 42.7273C270.6 42.8273 270.6 42.9273 270.6 42.9273C270.5 43.0273 270.5 43.4273 270.6 43.4273C270.6 43.4273 270.6 43.5273 270.5 43.5273C270.4 43.5273 270.4 43.5273 270.4 43.5273C270.4 43.5273 270.4 43.5273 270.3 43.5273H270.2C270.2 43.4273 270.2 43.4273 270.2 43.5273C270.2 43.5273 270.1 43.6273 269.9 43.6273C269.7 43.6273 269.6 43.6273 269.6 43.5273C269.6 43.5273 269.6 43.4273 269.5 43.5273C269.5 43.5273 269.5 43.4273 269.6 43.4273C269.6 43.4273 269.6 43.3273 269.7 43.3273C269.7 43.3273 269.8 43.3273 269.7 43.3273C269.7 43.3273 269.7 43.3273 269.7 43.2273C269.7 43.1273 269.7 43.1273 269.6 43.2273C269.6 43.2273 269.5 43.2273 269.6 43.2273C269.6 43.2273 269.6 43.1273 269.6 43.0273C269.6 42.4273 269.7 42.3273 269.7 42.3273C269.7 42.3273 269.7 42.2273 269.7 42.1273C269.7 42.0273 269.7 41.8273 269.8 41.6273C269.8 41.4273 269.8 41.2273 269.8 41.2273C269.8 41.1273 269.8 41.0273 269.8 40.8273C269.8 40.7273 269.8 40.5273 269.8 40.4273C269.8 40.4273 269.8 40.1273 269.9 39.9273C269.9 39.7273 269.9 39.5273 270 39.4273C270 39.4273 270 39.3273 269.9 39.3273C269.8 39.3273 269.7 39.2273 269.8 39.2273C269.8 39.2273 269.7 39.2273 269.7 39.0273C269.7 38.9273 269.7 38.9273 269.7 38.9273C269.7 38.9273 269.7 38.9273 269.7 38.8273C269.7 38.7273 269.7 38.6273 269.6 38.6273L269.5 38.5273C269.5 38.5273 269.4 38.4273 269 37.8273C268.9 37.6273 268.9 37.4273 268.9 37.4273C268.9 37.3273 269 37.3273 269.6 37.3273C269.9 37.3273 270.2 37.3273 270.3 37.2273H270.4L270.5 36.5273C270.7 35.2273 271.3 31.9273 271.3 31.9273C271.3 31.9273 271.5 31.9273 271.7 31.9273C272 31.9273 272.2 31.9273 272.2 31.9273C272.3 32.0273 272.4 32.0273 272.5 31.9273C272.5 31.9273 272.6 31.9273 272.7 31.9273L272.9 32.0273V31.9273C272.9 31.8273 272.9 31.8273 273 31.8273C273.1 31.8273 273.2 31.8273 273.3 31.8273C273.4 31.8273 273.5 31.8273 273.5 31.8273H273.6C273.7 32.0273 273.7 32.3273 273.2 35.8273C273.1 36.3273 273.1 36.7273 273.1 36.7273C273.1 36.7273 273.3 36.7273 273.6 36.7273C274.1 36.6273 274.4 36.6273 275.2 36.6273C275.5 36.6273 275.8 36.6273 276 36.6273H276.3L276.4 36.1273C276.8 34.1273 277.3 31.4273 277.4 31.2273C277.4 30.9273 277.5 30.8273 277.6 30.8273C277.6 30.8273 278.3 30.8273 278.4 30.8273C278.5 30.8273 278.5 30.8273 278.6 30.8273C278.6 30.8273 278.7 30.8273 278.8 30.9273L278.9 31.0273V30.9273C278.9 30.8273 278.9 30.8273 279.1 30.8273C279.2 30.8273 279.3 30.8273 279.3 30.8273C279.4 30.8273 279.5 30.8273 279.6 31.0273C279 31.6273 279 31.7273 279 32.0273ZM269.7 43.9273C269.6 44.0273 269.6 44.1273 269.7 43.9273C269.6 44.0273 269.7 44.0273 269.7 43.9273ZM269.8 43.1273C269.8 43.1273 269.7 43.1273 269.8 43.1273C269.7 43.3273 269.8 43.3273 269.8 43.1273C269.8 43.2273 269.8 43.1273 269.8 43.1273ZM270 43.7273C270 43.7273 269.9 43.7273 270 43.7273C270 43.7273 270 43.6273 270 43.7273C270.1 43.7273 270.1 43.7273 270 43.7273ZM270 42.8273C269.9 42.9273 269.9 43.0273 270 43.0273C270 43.0273 270.1 43.0273 270 42.8273C270.1 42.8273 270.1 42.8273 270 42.8273ZM270.1 43.4273C270.1 43.4273 270.2 43.5273 270.1 43.4273C270.2 43.5273 270.1 43.5273 270.1 43.4273C270 43.4273 270 43.4273 270.1 43.4273C270.1 43.3273 270.1 43.3273 270.1 43.4273ZM270.1 44.0273C270 44.1273 270 44.1273 270.1 44.0273C270.1 44.0273 270.1 43.9273 270.1 44.0273ZM270.2 42.7273C270.2 42.7273 270.2 42.6273 270.2 42.7273C270.1 42.7273 270.1 42.7273 270.2 42.7273ZM270.1 42.3273C270.1 42.4273 270.1 42.5273 270.1 42.5273C270.1 42.5273 270.1 42.5273 270.2 42.5273C270.2 42.3273 270.2 42.2273 270.1 42.3273ZM270.3 42.1273C270.3 42.1273 270.2 42.0273 270.3 42.1273C270.2 42.1273 270.2 42.1273 270.2 42.1273C270.2 42.1273 270.2 42.1273 270.3 42.1273ZM270.3 41.5273C270.2 41.5273 270.2 41.5273 270.3 41.5273C270.2 41.6273 270.3 41.6273 270.3 41.5273ZM270.3 41.9273C270.3 42.0273 270.3 42.0273 270.3 41.9273C270.3 42.0273 270.3 42.0273 270.3 41.9273ZM270.6 43.7273C270.6 43.6273 270.6 43.6273 270.6 43.6273C270.6 43.6273 270.7 43.6273 270.6 43.7273C270.7 43.6273 270.7 43.7273 270.6 43.7273ZM271.1 42.9273V43.0273C271.1 43.0273 271.1 43.0273 271 43.0273V43.3273C271 43.3273 271 43.4273 271 43.5273C271 43.6273 271 43.7273 271 43.7273C271 43.7273 270.9 43.7273 271 43.7273C271.1 43.7273 271 43.7273 271 43.7273L270.9 43.8273C270.9 43.9273 270.9 43.9273 270.8 43.8273C270.8 43.8273 270.8 43.7273 270.8 43.6273C270.8 43.5273 270.8 43.4273 270.8 43.4273C270.8 43.4273 270.8 43.4273 270.9 43.3273C271 43.2273 271 43.2273 271 42.9273C271 42.5273 271 42.5273 271.1 42.5273C271.1 42.9273 271.1 42.9273 271.1 42.9273ZM270.7 43.1273C270.7 43.0273 270.7 42.9273 270.7 42.9273C270.8 42.8273 270.8 43.1273 270.7 43.1273C270.7 43.2273 270.7 43.1273 270.7 43.1273ZM270.7 41.4273C270.7 41.4273 270.7 41.3273 270.7 41.4273C270.7 41.4273 270.7 41.5273 270.7 41.4273C270.7 41.6273 270.7 41.5273 270.7 41.4273ZM271 40.8273C271 40.8273 271 40.7273 271 40.8273C271 40.7273 271 40.6273 271 40.7273V40.6273V40.5273C271 40.5273 271 40.5273 271 40.4273C270.9 40.3273 270.9 40.3273 270.9 40.4273C270.8 40.4273 270.8 40.8273 271 40.8273ZM271 42.4273C271 42.4273 270.9 42.4273 271 42.4273C270.9 42.4273 270.9 42.4273 271 42.4273C271 42.5273 271 42.5273 271 42.4273ZM271.1 41.8273C271.1 41.8273 271.1 41.9273 271.1 42.0273C271.1 42.1273 271.1 42.2273 271.1 42.2273C271.1 42.3273 271.2 42.2273 271.2 42.1273C271.1 42.1273 271.1 42.0273 271.1 41.8273ZM271.1 39.8273C271.1 39.7273 271.1 39.7273 271.1 39.8273C271.1 39.9273 271 40.0273 271 40.0273C271 40.1273 271 40.1273 271 40.0273C271.1 40.0273 271.1 39.9273 271.1 39.8273ZM271.4 42.7273L271.3 43.3273C271.3 43.3273 271.3 43.2273 271.3 43.1273C271.3 43.0273 271.3 42.9273 271.3 42.9273C271.2 42.8273 271.3 42.7273 271.4 42.7273ZM271.3 40.4273C271.3 40.5273 271.3 40.5273 271.3 40.4273C271.3 40.5273 271.3 40.5273 271.3 40.4273ZM271.6 41.4273C271.6 41.5273 271.6 41.6273 271.6 41.8273C271.6 42.0273 271.6 42.1273 271.5 42.2273C271.5 42.3273 271.5 42.4273 271.5 42.4273V42.5273C271.5 42.5273 271.5 42.4273 271.5 42.2273C271.5 42.1273 271.5 41.8273 271.5 41.7273C271.5 41.6273 271.5 41.5273 271.6 41.5273C271.5 41.4273 271.5 41.4273 271.6 41.4273C271.5 41.3273 271.5 41.2273 271.6 41.2273C271.7 41.3273 271.7 41.3273 271.6 41.4273ZM271.5 37.0273C271.6 37.0273 271.6 36.9273 271.5 37.0273C271.6 36.9273 271.5 36.9273 271.5 37.0273C271.5 37.1273 271.5 37.1273 271.5 37.0273ZM271.6 40.5273C271.5 40.5273 271.5 40.5273 271.6 40.5273C271.6 40.5273 271.7 40.5273 271.6 40.5273C271.7 40.5273 271.7 40.5273 271.6 40.5273ZM271.7 40.3273C271.7 40.3273 271.7 40.2273 271.7 40.3273C271.6 40.2273 271.6 40.3273 271.7 40.3273C271.7 40.4273 271.7 40.4273 271.7 40.3273ZM271.7 40.1273C271.7 40.1273 271.7 40.0273 271.7 40.1273C271.7 40.0273 271.7 40.0273 271.7 40.1273C271.6 40.1273 271.6 40.1273 271.7 40.1273ZM271.7 40.2273C271.6 40.2273 271.6 40.2273 271.7 40.2273C271.7 40.2273 271.7 40.1273 271.7 40.2273ZM271.6 36.2273C271.6 36.3273 271.6 36.3273 271.6 36.2273C271.7 36.3273 271.7 36.2273 271.6 36.2273C271.7 36.1273 271.6 36.2273 271.6 36.2273ZM274.5 38.5273C274.4 38.4273 274.4 38.4273 274.5 38.5273C274.4 38.5273 274.3 38.5273 274.2 38.5273C274.1 38.5273 274.1 38.5273 274.2 38.5273C274.3 38.5273 274.5 38.6273 274.5 38.5273ZM274.4 46.0273C274.4 46.0273 274.4 46.1273 274.4 46.0273C274.4 46.1273 274.4 46.1273 274.4 46.0273C274.4 46.0273 274.4 45.9273 274.4 46.0273ZM274.5 45.4273C274.5 45.6273 274.4 45.5273 274.5 45.4273C274.5 45.3273 274.5 45.3273 274.5 45.4273C274.5 45.3273 274.5 45.4273 274.5 45.4273ZM274.5 45.0273C274.5 44.9273 274.5 44.9273 274.5 45.0273C274.6 45.0273 274.6 45.0273 274.5 45.0273ZM274.6 38.3273C274.6 38.3273 274.7 38.4273 274.7 38.3273C274.7 38.3273 274.7 38.3273 274.6 38.3273C274.6 38.2273 274.6 38.3273 274.6 38.3273ZM275.2 38.5273C275.3 38.5273 275.3 38.5273 275.2 38.5273C275.2 38.4273 275.2 38.3273 275.2 38.3273C275.2 38.3273 275.1 38.3273 275.2 38.3273C275.2 38.4273 275.2 38.4273 275.1 38.3273C275.1 38.2273 274.9 38.3273 274.9 38.3273C274.9 38.3273 274.9 38.3273 274.8 38.3273C274.8 38.3273 274.8 38.3273 274.7 38.3273C274.7 38.3273 274.8 38.4273 275 38.3273C275.1 38.3273 275.1 38.3273 275.1 38.4273C275.1 38.4273 275.1 38.4273 275.2 38.4273C275.2 38.5273 275.2 38.4273 275.2 38.5273ZM274.8 39.1273C274.8 39.1273 274.7 39.1273 274.8 39.1273C274.7 39.1273 274.7 39.1273 274.7 39.1273C274.7 39.1273 274.7 39.1273 274.8 39.1273C274.7 39.1273 274.8 39.1273 274.8 39.1273C274.9 39.0273 274.9 39.0273 274.8 39.1273ZM274.8 43.7273C274.7 43.6273 274.7 43.6273 274.8 43.7273C274.6 43.6273 274.6 43.7273 274.8 43.7273C274.7 44.0273 274.8 43.9273 274.8 43.7273ZM274.9 43.0273C274.9 42.9273 274.9 42.9273 274.9 43.0273C274.9 42.9273 274.8 42.9273 274.9 43.0273C274.8 43.0273 274.8 43.0273 274.9 43.0273ZM275 45.7273C275 45.7273 275 45.6273 275 45.7273C274.9 45.6273 274.9 45.6273 275 45.7273C274.9 45.7273 274.9 45.7273 275 45.7273ZM275 45.8273C274.9 45.8273 274.9 45.8273 275 45.8273C274.9 45.9273 275 45.9273 275 45.8273ZM275 45.4273C274.9 45.5273 275 45.5273 275 45.5273C275.1 45.5273 275.1 45.5273 275 45.4273ZM275 44.8273C275 44.9273 275 44.9273 275 44.8273C275.1 44.9273 275.1 44.9273 275 44.8273C275.1 44.8273 275.1 44.8273 275 44.8273ZM275.1 46.1273C275.1 46.1273 275.1 46.2273 275.1 46.1273C275.1 46.2273 275.1 46.1273 275.1 46.1273C275.1 46.0273 275 46.0273 275.1 46.1273ZM275.3 39.6273C275.2 39.6273 275.2 39.6273 275.3 39.6273V39.6273ZM275.4 45.7273C275.4 45.7273 275.4 45.9273 275.3 45.9273C275.3 45.7273 275.4 45.7273 275.4 45.7273ZM275.5 45.1273C275.5 45.2273 275.5 45.3273 275.5 45.1273V45.0273V45.1273ZM275.6 44.7273C275.6 44.8273 275.5 44.8273 275.5 44.7273C275.4 44.8273 275.5 44.7273 275.6 44.7273C275.7 44.6273 275.7 44.6273 275.6 44.7273ZM275.5 44.5273V44.4273C275.6 44.4273 275.6 44.5273 275.5 44.5273C275.5 44.6273 275.4 44.5273 275.5 44.5273ZM275.6 43.4273C275.6 43.4273 275.6 43.5273 275.6 43.6273C275.6 43.7273 275.6 43.7273 275.6 43.4273C275.7 43.3273 275.7 43.3273 275.6 43.4273ZM275.7 42.9273C275.7 42.9273 275.6 42.9273 275.7 42.9273C275.6 43.0273 275.6 43.0273 275.7 42.9273C275.7 43.0273 275.7 43.0273 275.7 42.9273ZM276.1 43.7273C276.1 43.7273 276 43.7273 276.1 43.7273C276 43.7273 276 43.7273 276 43.7273C275.9 43.7273 276 43.6273 276.1 43.7273C276.1 43.6273 276.1 43.6273 276.1 43.7273ZM276 42.2273C276 42.3273 276 42.3273 276 42.3273C275.9 42.3273 275.9 42.5273 276 42.5273C276 42.5273 276 42.5273 276 42.4273C276.1 42.4273 276.1 42.3273 276 42.2273C276.1 42.0273 276.1 42.0273 276 42.2273ZM276.2 42.8273C276.2 42.8273 276.1 42.8273 276.2 42.8273C276.1 42.9273 276.1 43.0273 276.1 43.0273V43.1273C276.1 43.2273 276.1 43.2273 276.1 43.2273C276.1 43.2273 276.1 43.2273 276.1 43.1273C276.1 43.0273 276.1 43.0273 276.1 43.0273C276.1 43.0273 276.1 43.0273 276.1 42.9273C276.1 42.8273 276.1 42.8273 276.2 42.8273C276.1 42.8273 276.1 42.8273 276.2 42.8273C276.1 42.8273 276.1 42.8273 276 42.8273C276.2 42.6273 276.2 42.7273 276.2 42.8273ZM276.2 41.8273C276.2 41.7273 276.1 41.7273 276.1 41.7273C276 41.7273 276.1 41.8273 276.2 41.8273ZM276.4 40.1273C276.4 40.0273 276.4 40.0273 276.4 40.1273C276.3 40.0273 276.3 40.1273 276.4 40.2273C276.4 40.2273 276.4 40.2273 276.4 40.1273ZM276.5 39.2273C276.5 39.1273 276.5 39.1273 276.5 39.2273C276.4 39.2273 276.4 39.3273 276.5 39.2273C276.4 39.3273 276.4 39.4273 276.4 39.4273C276.4 39.5273 276.4 39.5273 276.4 39.4273C276.5 39.5273 276.5 39.3273 276.5 39.2273ZM276.4 39.8273C276.3 39.9273 276.3 39.9273 276.4 39.8273C276.3 39.9273 276.4 39.9273 276.4 39.8273ZM276.5 43.8273C276.5 43.8273 276.5 43.9273 276.5 43.8273C276.5 43.9273 276.5 43.9273 276.5 43.8273ZM276.7 44.0273C276.7 44.0273 276.7 43.9273 276.7 44.0273C276.7 43.9273 276.7 44.0273 276.7 44.0273ZM276.8 42.4273C276.8 42.3273 276.8 42.3273 276.8 42.4273C276.8 42.4273 276.7 42.5273 276.8 42.4273L276.7 42.5273C276.7 42.5273 276.7 42.6273 276.8 42.6273C276.8 42.6273 276.8 42.6273 276.8 42.4273ZM276.8 43.7273C276.8 43.7273 276.8 43.8273 276.8 43.7273C276.7 43.8273 276.7 43.8273 276.7 43.8273L276.8 43.7273ZM276.9 42.0273C276.8 42.0273 276.8 42.0273 276.9 42.0273C276.8 42.1273 276.9 42.1273 276.9 42.0273C276.9 42.1273 276.9 42.1273 276.9 42.0273ZM277 41.9273C277 41.9273 277 41.8273 277 41.9273C276.9 41.9273 276.9 41.9273 276.9 41.9273C276.8 41.9273 276.8 41.9273 277 41.9273C276.9 41.9273 277 41.9273 277 41.9273ZM277 41.7273C277 41.6273 277 41.6273 277 41.7273C276.8 41.8273 276.8 41.8273 277 41.7273C276.9 41.8273 277 41.8273 277 41.7273ZM277 41.4273C277 41.3273 277 41.4273 277 41.4273C277 41.5273 277 41.5273 277 41.4273C277 41.5273 277 41.4273 277 41.4273ZM277.2 43.2273C277.2 43.4273 277.2 43.4273 277.2 43.2273C277.1 43.2273 277.1 43.1273 277.1 43.1273C277.2 43.0273 277.2 43.0273 277.2 43.2273ZM277.3 39.8273C277.3 39.7273 277.2 39.8273 277.3 39.8273C277.3 39.9273 277.3 40.0273 277.3 40.0273C277.3 40.0273 277.3 40.0273 277.3 39.8273C277.3 39.9273 277.3 39.9273 277.3 39.8273C277.3 39.9273 277.3 39.8273 277.3 39.8273ZM277.2 40.1273C277.2 40.2273 277.2 40.2273 277.2 40.1273C277.2 40.2273 277.2 40.2273 277.2 40.1273ZM277.4 36.6273C277.4 36.5273 277.4 36.5273 277.4 36.6273C277.4 36.7273 277.4 36.7273 277.4 36.6273C277.5 36.6273 277.5 36.6273 277.4 36.6273ZM277.6 39.1273C277.5 39.1273 277.5 39.1273 277.6 39.1273C277.7 39.1273 277.7 39.1273 277.7 39.1273C277.8 39.1273 277.7 39.1273 277.6 39.1273ZM278.2 38.6273C278.3 38.6273 278.2 38.6273 278.2 38.6273C278.1 38.7273 278.1 38.7273 278.1 38.7273C278.1 38.6273 278.2 38.5273 278.2 38.6273ZM278.4 38.6273C278.3 38.6273 278.3 38.5273 278.4 38.6273C278.3 38.4273 278.3 38.4273 278.4 38.5273V38.6273ZM278.5 38.5273C278.4 38.5273 278.4 38.5273 278.5 38.5273C278.4 38.4273 278.4 38.4273 278.5 38.5273C278.5 38.4273 278.5 38.4273 278.5 38.5273ZM278.6 38.5273C278.6 38.5273 278.6 38.6273 278.6 38.5273C278.5 38.6273 278.5 38.6273 278.6 38.5273C278.5 38.5273 278.6 38.5273 278.6 38.5273Z" fill="white"/>
</svg>
