<svg xmlns="http://www.w3.org/2000/svg" width="986.016" height="363.175" viewBox="0 0 986.016 363.175">
  <g id="Layer_2" data-name="Layer 2" transform="translate(-0.005 -0.004)">
    <g id="Layer_1-2" data-name="Layer 1-2" transform="translate(0.005 0.004)">
      <path id="Path_1" data-name="Path 1" d="M17.6,90.151l1.217,2.765a60.9,60.9,0,0,1-4.247-6.858,474.181,474.181,0,0,0,25.24,45.149l3.517,5.574,1.77,2.743.885,1.349.111.177h0l.177.221c.885,1.15,1.77,2.212,2.588,3.1a14.622,14.622,0,0,0,4.225,3.5,4.424,4.424,0,0,0,1.792,2.079c.487.155.774-.332.841-1.349a16.834,16.834,0,0,0-.288-3.5,10.441,10.441,0,0,0-.8-2.809,9.49,9.49,0,0,1-.288-1.327,16.458,16.458,0,0,1,0-4.424,5.068,5.068,0,0,1,.177-.619v-.243h0l-.133-.487-.752-1.482-6.327-12.167,4.867,9.954c-2.5-4.8-4.977-9.534-8.03-14.733l.509,2.212c-8.185-16.9-21.634-38.6-30.085-48.666S5.836,65.751,14,82.563Z" transform="translate(9.771 79.199)" fill="#fff"/>
      <path id="Path_2" data-name="Path 2" d="M34.206,122.931c-5.021-9.977-9.755-19.6-14.511-29.244l-.73-2.035-1.15,1.5h.2A402.218,402.218,0,0,1,41.4,128.041l2.986,4.557a14.268,14.268,0,0,0,3.3,3.716c1.372.664-.354-3.827-3.849-10.021l-3.982-7.145C30.6,101.474,14.673,74.442,6.444,66.368c-1.88-1.814-1.5.531-1.925,1.394-1.394,0,1.548,6.924,6.636,15.485S21.265,98.731,22.637,98.731l2.389,4.424-2.389-3.23c2.212,1.9,7.123,9.623,11.061,15.153l5.243,8.848-.553-6.327L35.4,113.176a5.287,5.287,0,0,0,.31,1.106c-5.751-8.273-11.193-16.016-17.188-25.24l-7.9-11.348c-2.345-2.964-2.832-2.212-1.15,1.5l2.61,5.575-1.106-2.566c6.636,12.5,13.936,25.528,20.484,37.893a27.761,27.761,0,0,0,3.3,5.132c.73.708.531-.265-.531-2.212" transform="translate(5.07 79.711)" fill="#fff"/>
      <path id="Path_3" data-name="Path 3" d="M8.613,76.584A61.805,61.805,0,0,0,4.985,69.7L4.1,68.62l1.991,4.092C7.44,75.655,8.5,76.96,8.745,76.584" transform="translate(4.981 83.254)" fill="#fff"/>
      <path id="Path_4" data-name="Path 4" d="M4.546,69.593l-.8-1.7.42,1.195.2.31Z" transform="translate(4.535 82.281)" fill="#fff"/>
      <path id="Path_5" data-name="Path 5" d="M129.1,94.692A397.672,397.672,0,0,1,180.424,47.95a313.679,313.679,0,0,1,60.479-36.1,7.985,7.985,0,0,0,2.632-1.5c0-.177-1.172.2-2.522.8a315.2,315.2,0,0,0-60.59,36.1,397.709,397.709,0,0,0-51.5,46.675,9.91,9.91,0,0,0-1.836,2.433c0,.177.907-.531,1.9-1.593" transform="translate(154.059 12.564)" fill="#fff"/>
      <path id="Path_6" data-name="Path 6" d="M270.022,14.558c-1.04-.221-1.062,0,0,.442a20.593,20.593,0,0,0,3.451,1.217c.885.2.907,0,0-.42A17.477,17.477,0,0,0,270,14.58" transform="translate(326.353 17.619)" fill="#fff"/>
      <path id="Path_7" data-name="Path 7" d="M583.318,41.83a158.741,158.741,0,0,0-16.3-3.584,22.962,22.962,0,0,1-2.7-.6c.265.354-.885.31-3.008,0a273.484,273.484,0,0,0-64.151-4,227.228,227.228,0,0,0-63.908,13.273,5.022,5.022,0,0,1-1.526,1.195,115.917,115.917,0,0,1-13.958,6.26l-4.424,1.7a270.431,270.431,0,0,0-50.215,27.762c-3.008,2.566-6.636,5.486-10.375,8.627a391.768,391.768,0,0,0-35.526,35.88c.863-.664,1.482-.973,1.659-.8.2.642-2.212,3.8-5.309,7.211l-4.623,5.221c4.424-4.933,9.136-9.755,13.892-14.4.686-.686,1.327-1.283,1.925-1.836q7.7-7.809,15.905-15.308A299.761,299.761,0,0,1,418.56,55.988a230.192,230.192,0,0,1,87.754-20.661,16.127,16.127,0,0,1,3.429.111c.575.155.465.354-.642.4a212.473,212.473,0,0,0-53.4,10.154A274.746,274.746,0,0,0,403.274,69.3a295.3,295.3,0,0,0-59.329,45.547A407.029,407.029,0,0,0,294.593,173.8c-3.429,4.668-6.636,9.357-9.91,14.113l-2.367,3.562-2.212,3.362-2.212,3.584c-3.008,4.778-5.951,9.645-8.848,14.644s-5.641,10.109-8.318,15.485l-8.052,17.033-16.281,34.531-1.548-1.969-.73-.907a10.152,10.152,0,0,1-.73-.973l-3.318-4.668-6.459-9.335-12.874-18.891-26.39-38.026-6.636-9.689-2.632-3.761-1.792-2.544-7.366-10.131-3.628-5.154c-1.084-1.482-3.008-4.181-2.566-3.561l-.664-.575a9,9,0,0,0-1.637-1.128c-.243,1.084-.4,1.814-.487,2.389v.376h0l-1,2.411-2.212,5.4-9.07,21.524-19.511,46.056L88.491,332.878c-4.424,10.53-8.848,20.75-13.007,30.262-11.348-19.688-21.5-38.181-28.757-52.4s-11.791-24.333-12.5-28.182c-.487-2.9,1.106-2.212,4.092,1.04a174.865,174.865,0,0,1,12.565,16.746L44.8,289.963l-9.4-16.768c-4.424-7.9-8.384-15.241-11.68-21.634-1.659-3.208-3.119-6.172-4.424-8.848-.376-.774-.487-1.084-.664-1.5l-.465-1.195c-.31-.774-.575-1.526-.818-2.212l-2.787-7.7c-3.008-10.463-9.755-26.545-11.68-35.394l1.925,1.128-.774-1.925c-2.743-6.26-4.181-10.729-4.026-12.631l1.46-.111c2.013.465,4.977,2.655,8.848,6.636.376-.442,1.195-.155,2.345.8-1.195-4.69-1.106-7.3,2.212-4.933-1.084-2.61-.354-2.5,1.615.2.686.929,1.438,2.079,2.212,3.3h0c-.487-1.5-.619-1.947-1.349-3.915l-2.057-3.871-6.636-12.1c-2.389-4.977-3.584-8.229-3.584-8.229-1.062-6.371-1.062-6.371.288-6.15l.841.863-2.942-5.906c-.553-1.283-.841-2.212-.841-2.212.354-.465.354-.465,0-1.283a.376.376,0,0,1,.243-.4c1.9,2.035,1.9,2.035,2.212,2.013.465.465,1.04,1.172,1.04,1.172L8.7,151.308l2.212,6.636,1.172,1.04.243,1.7V159.6l1.46,3.163-1.548-3.672c3.982,7.167,3.982,7.167,5.663,9.977s3.385,5.442,3.561,5.729c0-.332.111-.42.111-.42l8.362,15.131c.288.752.487,1.349.686,1.925a21.767,21.767,0,0,1,2.212,3.451l2.212,3.915.553.8h0l2.212,3.119.465.642h0L47.7,216.83l1.836,3.362.863,1.615.42.8.332.642s-.243-.575-.354-.885l-.42-.973c-.553-1.305.553-.465.2-1.15-8.539-16.679-18.515-34.376-28.2-52.073a22.961,22.961,0,0,1-3.23-6.813c.133-.619,1.77,1.394,3.694,4.424,5.685,8.273,11.5,17.144,17.321,26.346,2.942,4.6,5.862,9.291,8.716,14.047l4.424,7.167,3.871,6.5A211.9,211.9,0,0,1,67.63,240.9l.288-.4c1.593-3.031,3.3-6.415,5.088-10.021l-.376.2,1.526-2.522.155-.31q-.73.6-1.526,1.128l-.774,1.106a75.519,75.519,0,0,1-4.424,8.1c-2.367-5.176-4.269-9.822-5.928-13.671a49.88,49.88,0,0,1-1.925-4.845l-.31-1.084v-.265h0l-.133-.243-.265-.509-1.04-2.057-4.424-8.34c-1.615-2.831-2.455-4.933-1.925-4.8a19.688,19.688,0,0,1,3.871,5.375l4.977,8.185.619,1.04.133.221h0l.221.31.42.642c.553.841,1.062,1.725,1.571,2.632,1.172,2.212,2.212,4.424,3.185,6.769a43.513,43.513,0,0,1,5.044-4.845,18.031,18.031,0,0,1,1.327-2.5c.243-.4.509-.774.774-1.128l.42-.531.221-.265v-.133h0l.133-.265.155-.31-.332.509c0,.155,0,0-.177.177l-.31.221-.6.4a7.256,7.256,0,0,1,.6-.841l1.548-2.832c1.04-1.88,2.079-3.694,3.252-6.061l-1.77,1.349c5.906-12.919,11.791-26.545,17.7-39.818,2.942-6.636,5.906-13.273,8.848-19.555l6.636-14.644,7.145-15.219,2.212-4.579c6.946-18.161,14.4-37.429,23.515-58.975L133.64,78.618c4.026-10,8.1-20.2,12.366-30.394,3.738,5.375,7.543,10.95,11.481,16.768,13.936,20.661,28.625,43.136,40.9,62.669l4.424,7.189c1.372,2.212,3.141,5.044,3.628,5.973,1.526,2.677,2.964,5.265,4.269,7.7,2.632,4.867,4.778,9.18,6.282,12.675l2.787,4.026,1.615,2.212,3.208,4.579,3.163,4.424,1.571,2.212.774,1.106.2.265a.354.354,0,0,1,.155-.288l.31-.641c1.416-2.964,2.942-5.818,4.424-8.605l2.389-4.115,1.217-1.991.619-1,1.7-2.522a495.139,495.139,0,0,1,32.452-43.579A19.091,19.091,0,0,1,278,112.861c.442,0-.619,1.659-2.522,3.938a515.128,515.128,0,0,0-32.142,44.508l-1.858,2.9-.288.442-.177.31-.354.6-1.416,2.389c-.929,1.615-1.858,3.252-2.787,4.955-1.836,3.385-3.672,6.88-5.353,10.552l-.31.686c0,.177-.2.664-.332.288l-.818-1.106-1.637-2.212,1.637,2.61.818,1.327c.155.42.243,0,.354-.2l.332-.619a190,190,0,0,1,10.176-16.414l4.557-6.636c2.212-3.119,4.424-6.238,6.636-9.313q6.636-9.247,13.892-18.272,4.159-5.331,8.494-10.662c2.854-3.5,5.862-6.813,8.848-10.065A398.181,398.181,0,0,1,332.42,66.407a334.471,334.471,0,0,1,57.847-37.34A271.562,271.562,0,0,1,445.083,8.339a262.423,262.423,0,0,1,58.4-8.3,286.466,286.466,0,0,1,82.534,10.131,355.445,355.445,0,0,1,75.566,30.571c6.636,3.407,12.1,7.322,12.432,8.472s-4.6-.885-11.061-4.291a386.1,386.1,0,0,0-80.167-31.346,287.574,287.574,0,0,0-86.538-9.424,261.671,261.671,0,0,0-85.963,19.024,314.12,314.12,0,0,0-76.561,45.193,378.248,378.248,0,0,0-28.758,25.13h.465a7.013,7.013,0,0,1-1.438,3.1,347.669,347.669,0,0,1,32.629-27.983,295.382,295.382,0,0,1,50.5-33.956A233.024,233.024,0,0,1,530.758,9.644a318.789,318.789,0,0,1,99.987,26.3,12.476,12.476,0,0,1,2.942,1.548c.376.354-.354.177-1.659-.354a367.208,367.208,0,0,0-69.748-21.015c3.694,1.327,5.774,2.544,5.309,3.185s-3.539.619-8.1.155q8.1,1.725,16.1,3.915a14.4,14.4,0,0,1,5.574,2.212,14.136,14.136,0,0,1-5.973-.951A274.921,274.921,0,0,0,508.836,14.8a247.225,247.225,0,0,0-79.415,12.808,24.709,24.709,0,0,1,7.964-.531h0q5.973-1.725,11.968-3.185a235.413,235.413,0,0,1,56.5-7.7,258.973,258.973,0,0,1,57.515,5.774c37.96,8.052,74.15,23.935,107.464,44.021,1.305.774,2.323,1.548,2.212,1.7s-1.15-.31-2.212-1.04a387.125,387.125,0,0,0-63.112-30.97h0c.841.442.929.686,0,.42a23.667,23.667,0,0,1-3.429-1.283c-.973-.487-.818-.642,0-.442a291,291,0,0,0-63.421-15.485,243.753,243.753,0,0,0-64.461.265,246.054,246.054,0,0,1,59.417.221A282.11,282.11,0,0,1,593.516,33c4.159,1.172,8.273,2.411,12.432,3.783a13.273,13.273,0,0,1,2.942,1.372c.265.243-.619,0-1.77-.31l-3.451-1.128c6.99,2.677,12.012,5.619,11.547,6.393s-6.88-1.106-14.069-3.8a309.293,309.293,0,0,0-59.572-15.175q-3.318-.4-6.636-.73c-2.212-.221-4.424-.221-6.636-.31a298.458,298.458,0,0,1,90.962,25.815,12.122,12.122,0,0,1,4.424,2.566c0,.354-2.212-.332-4.645-1.416a314.806,314.806,0,0,0-79.879-21.59,241.74,241.74,0,0,0-82.423,3.517A239.639,239.639,0,0,0,406.46,53.134l6.371-2.809a258.993,258.993,0,0,1,81.118-20.86A238.6,238.6,0,0,1,577.1,37.229a7.92,7.92,0,0,1,2.7,1.062c0,.2-.907,0-2.323-.354a246.119,246.119,0,0,0-81.516-7.809,217.273,217.273,0,0,0-64.151,14.29,238.112,238.112,0,0,1,126.8-8.671,28.977,28.977,0,0,1,4.889,1.305,3.1,3.1,0,0,1,1.106,0c5.42.863,11.282,2.212,17.21,3.672a12.83,12.83,0,0,1,3.075,1.128c.531.332-.177.243-1.46,0M67.3,262.488l-.4-1.062,1.416,3.031.885,2.588,1.04-.487-1,.951ZM37.612,221.83h0l-1-3.119ZM235.6,178.45c-1.548,2.7-3.053,5.42-4.424,8.1l-.354.686-.177.354h0l-.111-.177-.885-1.372-1.77-2.743-3.451-5.486c-2.212-3.65-4.424-7.256-6.415-10.707l4.424,6.282,4.291,7.057,2.212,3.694,1.15,1.88.288.465s0,.177.133.2v-.2l.465-.818c1.349-2.411,2.854-4.822,4.424-7.3M54,230.523c1.283,3.517,2.212,6.88,3.385,10.419,1.349,1.969,2.677,4.092,4,6.437,2.389,4.181,4.756,8.384,7.145,12.7l2.787-5.951c-.487,0,.177-1.46.487-2.212l.973-2.544-4.424,8.848-5.353-10.154c-3.141-6.017-6.5-12.078-9.07-17.454M13.456,165.067l-.376-.973,1.748,1.593Zm-2.809-2.478.8,1.526a1.991,1.991,0,0,1-.8-1.526m7.3,14.069c-.31-.907-.509-1.438-.818-2.212ZM6.222,196.567l6.105,3.561L6.045,196.1Z" transform="translate(0.005 0.036)" fill="#fff"/>
      <path id="Path_8" data-name="Path 8" d="M210.5,111.153,193,50.32h14.467L218.041,91.8,228.615,50.32h13.206l-17.5,60.833v30.173H210.5Z" transform="translate(233.927 60.984)" fill="#fff"/>
      <path id="Path_9" data-name="Path 9" d="M216.21,72.705c0-14.556,7.433-22.9,21.015-22.9s21.015,8.318,21.015,22.9v47.317c0,14.556-7.433,22.9-21.015,22.9s-21.015-8.318-21.015-22.9Zm13.826,48.313c0,6.5,2.765,8.981,7.167,8.981s7.167-2.478,7.167-8.981V71.776c0-6.5-2.765-8.981-7.167-8.981s-7.167,2.478-7.167,8.981Z" transform="translate(262.082 60.454)" fill="#fff"/>
      <path id="Path_10" data-name="Path 10" d="M252.737,50.28v70.168c0,6.5,2.765,8.848,7.167,8.848s7.167-2.345,7.167-8.848V50.28h13.074v69.283c0,14.578-7.034,22.9-20.639,22.9S239,134.141,239,119.563V50.28Z" transform="translate(289.706 61.024)" fill="#fff"/>
      <path id="Path_11" data-name="Path 11" d="M274.274,75.427v65.9H261.82V50.32h17.387L293.431,104.8V50.32h12.321v91.006H291.529Z" transform="translate(317.344 60.984)" fill="#fff"/>
      <path id="Path_12" data-name="Path 12" d="M307.55,91.154h19.378v28.757c0,14.556-7.034,22.9-20.639,22.9s-20.639-8.318-20.639-22.9V72.705c0-14.556,7.034-22.9,20.639-22.9s20.639,8.318,20.639,22.9v8.848H313.854V71.776c0-6.5-2.765-8.981-7.167-8.981s-7.167,2.478-7.167,8.981v49.242c0,6.5,2.765,8.848,7.167,8.848s7.167-2.345,7.167-8.848V104.162h-6.282Z" transform="translate(346.251 60.454)" fill="#fff"/>
      <path id="Path_13" data-name="Path 13" d="M178.047,127.963l-3.606,34.752H160.815L153.78,97.48h9.667l5.287,51.454,4.8-51.454h9.556l4.977,51.83,5.11-51.83h8.649l-7.035,65.235h-13.14Z" transform="translate(186.388 118.147)" fill="#fff"/>
      <path id="Path_14" data-name="Path 14" d="M187.682,124.977h13.627v9.313H187.682V153.4h17.144v9.313H177.75V97.48h27.076v9.335H187.682Z" transform="translate(215.442 118.147)" fill="#fff"/>
      <path id="Path_15" data-name="Path 15" d="M222.414,112.438v2.212c0,6.636-1.991,11.061-6.393,13.14,5.331,2.212,7.388,7.079,7.388,13.981v5.309c0,10.065-5.132,15.485-15.064,15.485h-15.6V97.44h14.976c10.286,0,14.711,4.933,14.711,15m-19.754-5.685v17.232h3.893c3.694,0,5.951-1.681,5.951-6.9v-3.628c0-4.645-1.526-6.636-5.044-6.636Zm0,26.545V153.34h5.685c3.34,0,5.132-1.593,5.132-6.437v-5.685c0-6.061-1.9-7.919-6.415-7.919Z" transform="translate(233.646 118.187)" fill="#fff"/>
      <path id="Path_16" data-name="Path 16" d="M230.386,143.8l6.769-46.322h13.781v65.235h-9.357V115.929l-6.88,46.786h-9.357l-7.388-46.123v46.123H209.26V97.48h13.8Z" transform="translate(253.636 118.147)" fill="#fff"/>
      <path id="Path_17" data-name="Path 17" d="M264.9,162.675H254.877l-1.7-11.835H241.007l-1.7,11.835H230.19L240.3,97.44h14.511Zm-22.63-20.683h9.623l-4.778-32.983Z" transform="translate(279.027 118.187)" fill="#fff"/>
      <path id="Path_18" data-name="Path 18" d="M262.158,97.148c9.645,0,14.6,5.973,14.6,16.414v2.057h-9.379v-2.7c0-4.668-1.792-6.437-4.955-6.437s-4.955,1.77-4.955,6.437c0,13.428,19.4,15.949,19.4,34.575,0,10.441-5.044,16.392-14.8,16.392s-14.8-5.973-14.8-16.392v-4.115h9.379v4.668c0,4.668,1.991,6.349,5.154,6.349s5.132-1.681,5.132-6.349c0-13.428-19.4-15.927-19.4-34.575,0-10.441,4.955-16.414,14.6-16.414" transform="translate(299.73 117.727)" fill="#fff"/>
      <path id="Path_19" data-name="Path 19" d="M261.9,97.48h30.66v9.335H282.185v55.9H272.3v-55.9H261.9Z" transform="translate(317.441 118.147)" fill="#fff"/>
      <path id="Path_20" data-name="Path 20" d="M287.618,124.977h13.649v9.313H287.618V153.4h17.144v9.313H277.73V97.48h27.032v9.335H287.618Z" transform="translate(336.629 118.147)" fill="#fff"/>
      <path id="Path_21" data-name="Path 21" d="M313.457,162.675a20.906,20.906,0,0,1-.907-8.008V144.425c0-6.061-1.969-8.3-6.481-8.3H302.64v26.545h-9.91V97.44h14.976c10.286,0,14.688,4.933,14.688,15v5.132c0,6.636-2.079,11.061-6.481,13.273,4.955,2.212,6.636,7.079,6.636,13.892V154.8a20.111,20.111,0,0,0,1.084,7.919ZM302.64,106.753v20.042h3.96c3.694,0,5.951-1.681,5.951-6.9v-6.437c0-4.645-1.526-6.636-5.044-6.636Z" transform="translate(354.833 118.187)" fill="#fff"/>
      <path id="Path_22" data-name="Path 22" d="M269.62,174.906V183.6c0,10.441-5.044,16.414-14.8,16.414S240,194.019,240,183.6V149.644c0-10.441,5.044-16.414,14.777-16.414s14.8,5.973,14.8,16.414v6.327H260.2v-6.99c0-4.668-1.991-6.437-5.132-6.437s-5.154,1.77-5.154,6.437v35.239c0,4.668,1.991,6.349,5.154,6.349s5.132-1.681,5.132-6.349v-9.313Z" transform="translate(290.918 161.569)" fill="#fff"/>
      <path id="Path_23" data-name="Path 23" d="M289.67,198.815H279.649l-1.7-11.835H265.779l-1.725,11.835H254.94l10.109-65.235h14.511Zm-22.63-20.683H276.6l-4.778-32.983Z" transform="translate(309.027 161.993)" fill="#fff"/>
      <path id="Path_24" data-name="Path 24" d="M293.794,179.932l6.769-46.322h13.759v65.257h-9.379V152.059l-6.813,46.808h-9.4l-7.388-46.145v46.145H272.69V133.61H284.9Z" transform="translate(330.52 161.941)" fill="#fff"/>
      <path id="Path_25" data-name="Path 25" d="M324.179,149.7v8.472c0,10.441-4.867,16.126-14.8,16.126h-4.69v24.51h-9.91V133.57H309.4c9.91,0,14.8,5.685,14.8,16.126m-19.489-6.791v22.121h4.69c3.163,0,4.867-1.482,4.867-6.15V149.1c0-4.668-1.7-6.15-4.867-6.15Z" transform="translate(357.318 161.981)" fill="#fff"/>
      <path id="Path_26" data-name="Path 26" d="M414.23,52.62h32.23v9.8H435.555v58.8H425.114V62.42H414.23Z" transform="translate(502.082 63.772)" fill="#fff"/>
      <path id="Path_27" data-name="Path 27" d="M441.257,121.218h-10.4V52.62h10.4v29.4h11.879V52.62h10.64v68.6h-10.64v-29.4H441.257Z" transform="translate(522.239 63.772)" fill="#fff"/>
      <path id="Path_28" data-name="Path 28" d="M348.69,110.774h-31.5V82.415c11.061,0,11.061-.973,17.7-2.9a33.182,33.182,0,0,0,15.949-9.623A59.483,59.483,0,0,0,361.344,50.45H387.27V301.281H348.69Z" transform="translate(384.481 61.23)" fill="#fff"/>
      <path id="Path_29" data-name="Path 29" d="M373.124,286.173q-15.485-15.485-15.485-44.906V219.588a70.567,70.567,0,0,1,5.928-30.593,42.583,42.583,0,0,1,19.223-19.4v-.686a41.411,41.411,0,0,1-17.984-18.361c-3.849-7.787-5.774-17.7-5.774-29.864V110.531q0-29.333,15.2-44.906T417.742,50.14q28.337,0,43.512,15.485t15.219,44.906v10.087q0,34.951-23.78,48.224v.686a42.473,42.473,0,0,1,19.223,19.4,70.567,70.567,0,0,1,5.951,30.594V241.2q0,29.333-15.485,44.906t-44.574,15.485Q388.675,301.724,373.124,286.173Zm66.231-47.007V215.739q0-27.607-21.679-27.607t-21.59,27.607v23.426q0,27.607,21.657,27.607T439.354,239.165Zm-1.394-110.451V109.558q0-24.466-20.285-24.466t-20.263,24.466v19.223q0,24.466,20.263,24.466t20.285-24.532Z" transform="translate(433.468 60.854)" fill="#fff"/>
    </g>
  </g>
</svg>
