<svg id="Layer_1" data-name="Layer 1" xmlns="http://www.w3.org/2000/svg" viewBox="0 0 445.74 164.18"><g id="Layer_2" data-name="Layer 2"><g id="Layer_1-2" data-name="Layer 1-2"><path d="M12.37,76.52l.55,1.25A27.53,27.53,0,0,1,11,74.67,214.36,214.36,0,0,0,22.41,95.08L24,97.6l.8,1.24.4.61.05.08h0l.08.1c.4.52.8,1,1.17,1.4a6.61,6.61,0,0,0,1.91,1.58,2,2,0,0,0,.81.94c.22.07.35-.15.38-.61a7.61,7.61,0,0,0-.13-1.58,4.72,4.72,0,0,0-.36-1.27,4.29,4.29,0,0,1-.13-.6,7.44,7.44,0,0,1,0-2,2.29,2.29,0,0,1,.08-.28V97.1h0L29,96.88l-.34-.67-2.86-5.5,2.2,4.5c-1.13-2.17-2.25-4.31-3.63-6.66l.23,1c-3.7-7.64-9.78-17.45-13.6-22s-3.95-2.06-.26,5.54Z" transform="translate(0.01 0.04)"/><path d="M17.75,91.57c-2.27-4.51-4.41-8.86-6.56-13.22l-.33-.92-.52.68.09,0A181.83,181.83,0,0,1,21,93.88l1.35,2.06a6.45,6.45,0,0,0,1.49,1.68c.62.3-.16-1.73-1.74-4.53l-1.8-3.23C16.12,81.87,8.92,69.65,5.2,66c-.85-.82-.68.24-.87.63-.63,0,.7,3.13,3,7s4.57,7,5.19,7l1.08,2-1.08-1.46c1,.86,3.22,4.35,5,6.85l2.37,4-.25-2.86-1.35-2a2.39,2.39,0,0,0,.14.5c-2.6-3.74-5.06-7.24-7.77-11.41L7.09,71.12c-1.06-1.34-1.28-1-.52.68l1.18,2.52-.5-1.16c3,5.65,6.3,11.54,9.26,17.13A12.55,12.55,0,0,0,18,92.61c.33.32.24-.12-.24-1" transform="translate(0.01 0.04)"/><path d="M6.14,72.22A27.94,27.94,0,0,0,4.5,69.11l-.4-.49L5,70.47c.61,1.33,1.09,1.92,1.2,1.75" transform="translate(0.01 0.04)"/><polygon points="4.11 68.66 3.75 67.89 3.94 68.43 4.03 68.57 4.11 68.66"/><path d="M128,48.45A179.77,179.77,0,0,1,151.2,27.32,141.8,141.8,0,0,1,178.54,11a3.61,3.61,0,0,0,1.19-.68c0-.08-.53.09-1.14.36A142.49,142.49,0,0,0,151.2,27a179.79,179.79,0,0,0-23.28,21.1,4.48,4.48,0,0,0-.83,1.1c0,.08.41-.24.86-.72" transform="translate(0.01 0.04)"/><path d="M269.59,14.51c-.47-.1-.48,0,0,.2a9.31,9.31,0,0,0,1.56.55c.4.09.41,0,0-.19a7.9,7.9,0,0,0-1.57-.55" transform="translate(0.01 0.04)"/><path d="M263.69,18.89a71.76,71.76,0,0,0-7.37-1.62A10.38,10.38,0,0,1,255.1,17c.12.16-.4.14-1.36,0a123.63,123.63,0,0,0-29-1.81,102.72,102.72,0,0,0-28.89,6,2.27,2.27,0,0,1-.69.54,52.4,52.4,0,0,1-6.31,2.83l-2,.77a122.25,122.25,0,0,0-22.7,12.55c-1.36,1.16-3,2.48-4.69,3.9A177.1,177.1,0,0,0,143.4,58c.39-.3.67-.44.75-.36.09.29-1,1.72-2.4,3.26l-2.09,2.36c2-2.23,4.13-4.41,6.28-6.51.31-.31.6-.58.87-.83Q150.29,52.39,154,49a135.51,135.51,0,0,1,35.21-23.71,104.06,104.06,0,0,1,39.67-9.34,7.29,7.29,0,0,1,1.55.05c.26.07.21.16-.29.18A96.05,96.05,0,0,0,206,20.77,124.2,124.2,0,0,0,182.3,31.31,133.49,133.49,0,0,0,155.48,51.9a184,184,0,0,0-22.31,26.65c-1.55,2.11-3,4.23-4.48,6.38l-1.07,1.61-1,1.52-1,1.62c-1.36,2.16-2.69,4.36-4,6.62s-2.55,4.57-3.76,7l-3.64,7.7-7.36,15.61-.7-.89-.33-.41a4.59,4.59,0,0,1-.33-.44l-1.5-2.11-2.92-4.22L95.26,110,83.33,92.81l-3-4.38-1.19-1.7-.81-1.15L75,81l-1.64-2.33C72.87,78,72,76.78,72.2,77.06l-.3-.26a4.07,4.07,0,0,0-.74-.51c-.11.49-.18.82-.22,1.08v.17h0l-.45,1.09-1,2.44-4.1,9.73-8.82,20.82L40,150.46c-2,4.76-4,9.38-5.88,13.68-5.13-8.9-9.72-17.26-13-23.69s-5.33-11-5.65-12.74c-.22-1.31.5-1,1.85.47A79.05,79.05,0,0,1,23,135.75l-2.75-4.69L16,123.48c-2-3.57-3.79-6.89-5.28-9.78-.75-1.45-1.41-2.79-2-4-.17-.35-.22-.49-.3-.68l-.21-.54c-.14-.35-.26-.69-.37-1L6.58,104C5.22,99.27,2.17,92,1.3,88l.87.51-.35-.87C.58,84.81-.07,82.79,0,81.93l.66-.05c.91.21,2.25,1.2,4,3,.17-.2.54-.07,1.06.36-.54-2.12-.5-3.3,1-2.23-.49-1.18-.16-1.13.73.09.31.42.65.94,1,1.49h0c-.22-.68-.28-.88-.61-1.77l-.93-1.75-3-5.47c-1.08-2.25-1.62-3.72-1.62-3.72C1.81,69,1.81,69,2.42,69.1l.38.39L1.47,66.82c-.25-.58-.38-1-.38-1,.16-.21.16-.21,0-.58a.17.17,0,0,1,.11-.18c.86.92.86.92,1,.91.21.21.47.53.47.53l1.26,1.88,1,3,.53.47.11.77v-.49l.66,1.43-.7-1.66c1.8,3.24,1.8,3.24,2.56,4.51S9.62,78.87,9.7,79c0-.15.05-.19.05-.19l3.78,6.84c.13.34.22.61.31.87a9.84,9.84,0,0,1,1,1.56l1,1.77.25.36h0l1,1.41.21.29h0L21.56,98l.83,1.52.39.73.19.36.15.29s-.11-.26-.16-.4l-.19-.44c-.25-.59.25-.21.09-.52C19,92,14.49,84,10.11,76a10.38,10.38,0,0,1-1.46-3.08c.06-.28.8.63,1.67,2,2.57,3.74,5.2,7.75,7.83,11.91,1.33,2.08,2.65,4.2,3.94,6.35l2,3.24,1.75,2.94a95.79,95.79,0,0,1,4.73,9.52l.13-.18c.72-1.37,1.49-2.9,2.3-4.53l-.17.09.69-1.14.07-.14q-.33.27-.69.51l-.35.5a34.14,34.14,0,0,1-2,3.66c-1.07-2.34-1.93-4.44-2.68-6.18A22.55,22.55,0,0,1,27,99.28l-.14-.49v-.12h0l-.06-.11-.12-.23-.47-.93-2-3.77c-.73-1.28-1.11-2.23-.87-2.17a8.9,8.9,0,0,1,1.75,2.43l2.25,3.7.28.47.06.1h0l.1.14.19.29c.25.38.48.78.71,1.19.53,1,1,2,1.44,3.06a19.67,19.67,0,0,1,2.28-2.19,8.15,8.15,0,0,1,.6-1.13c.11-.18.23-.35.35-.51l.19-.24.1-.12,0-.06h0l.06-.12.07-.14-.15.23c0,.07,0,0-.08.08l-.14.1-.27.18a3.28,3.28,0,0,1,.27-.38l.7-1.28c.47-.85.94-1.67,1.47-2.74l-.8.61c2.67-5.84,5.33-12,8-18,1.33-3,2.67-6,4-8.84l3-6.62L53,54.79l1-2.07c3.14-8.21,6.51-16.92,10.63-26.66l-4.22,9.46C62.23,31,64.07,26.39,66,21.78c1.69,2.43,3.41,4.95,5.19,7.58,6.3,9.34,12.94,19.5,18.49,28.33l2,3.25c.62,1,1.42,2.28,1.64,2.7.69,1.21,1.34,2.38,1.93,3.48,1.19,2.2,2.16,4.15,2.84,5.73l1.26,1.82.73,1,1.45,2.07,1.43,2,.71,1,.35.5.09.12a.16.16,0,0,1,.07-.13l.14-.29c.64-1.34,1.33-2.63,2-3.89l1.08-1.86.55-.9.28-.45L109,72.7A223.83,223.83,0,0,1,123.67,53a8.63,8.63,0,0,1,2-2c.2,0-.28.75-1.14,1.78A232.87,232.87,0,0,0,110,72.9l-.84,1.31-.13.2-.08.14-.16.27-.64,1.08c-.42.73-.84,1.47-1.26,2.24-.83,1.53-1.66,3.11-2.42,4.77l-.14.31c0,.08-.09.3-.15.13l-.37-.5-.74-1,.74,1.18.37.6c.07.19.11,0,.16-.09l.15-.28a85.89,85.89,0,0,1,4.6-7.42l2.06-3c1-1.41,2-2.82,3-4.21q3-4.18,6.28-8.26,1.88-2.41,3.84-4.82c1.29-1.58,2.65-3.08,4-4.55a180,180,0,0,1,22-21,151.2,151.2,0,0,1,26.15-16.88,122.76,122.76,0,0,1,24.78-9.37A118.63,118.63,0,0,1,227.6,0a129.5,129.5,0,0,1,37.31,4.58A160.68,160.68,0,0,1,299.07,18.4c3,1.54,5.47,3.31,5.62,3.83s-2.08-.4-5-1.94A174.54,174.54,0,0,0,263.45,6.12a130,130,0,0,0-39.12-4.26,118.29,118.29,0,0,0-38.86,8.6,142,142,0,0,0-34.61,20.43,171,171,0,0,0-13,11.36h.21a3.17,3.17,0,0,1-.65,1.4A157.17,157.17,0,0,1,152.17,31,133.53,133.53,0,0,1,175,15.65,105.34,105.34,0,0,1,239.93,4.34a144.11,144.11,0,0,1,45.2,11.89,5.64,5.64,0,0,1,1.33.7c.17.16-.16.08-.75-.16a166,166,0,0,0-31.53-9.5c1.67.6,2.61,1.15,2.4,1.44s-1.6.28-3.66.07q3.66.78,7.28,1.77a6.51,6.51,0,0,1,2.52,1,6.39,6.39,0,0,1-2.7-.43,124.28,124.28,0,0,0-30-4.45,111.76,111.76,0,0,0-35.9,5.79,11.17,11.17,0,0,1,3.6-.24h0q2.7-.78,5.41-1.44A106.42,106.42,0,0,1,228.67,7.3a117.07,117.07,0,0,1,26,2.61c17.16,3.64,33.52,10.82,48.58,19.9.59.35,1.05.7,1,.77s-.52-.14-1-.47a175,175,0,0,0-28.53-14h0c.38.2.42.31,0,.19a10.7,10.7,0,0,1-1.55-.58c-.44-.22-.37-.29,0-.2a131.55,131.55,0,0,0-28.67-7,110.19,110.19,0,0,0-29.14.12,111.23,111.23,0,0,1,26.86.1,127.53,127.53,0,0,1,26.08,6.16c1.88.53,3.74,1.09,5.62,1.71a6,6,0,0,1,1.33.62c.12.11-.28,0-.8-.14l-1.56-.51c3.16,1.21,5.43,2.54,5.22,2.89s-3.11-.5-6.36-1.72a139.82,139.82,0,0,0-26.93-6.86q-1.5-.18-3-.33c-1-.1-2-.1-3-.14a134.92,134.92,0,0,1,41.12,11.67,5.48,5.48,0,0,1,2,1.16c0,.16-1-.15-2.1-.64a142.31,142.31,0,0,0-36.11-9.76,109.28,109.28,0,0,0-37.26,1.59A108.33,108.33,0,0,0,183.74,24l2.88-1.27a117.08,117.08,0,0,1,36.67-9.43,107.86,107.86,0,0,1,37.59,3.51,3.58,3.58,0,0,1,1.22.48c0,.09-.41,0-1.05-.16A111.26,111.26,0,0,0,224.2,13.6a98.22,98.22,0,0,0-29,6.46,107.64,107.64,0,0,1,57.32-3.92,13.1,13.1,0,0,1,2.21.59,1.4,1.4,0,0,1,.5,0c2.45.39,5.1,1,7.78,1.66a5.8,5.8,0,0,1,1.39.51c.24.15-.08.11-.66,0M30.42,118.64l-.18-.48.64,1.37.4,1.17.47-.22-.45.43ZM17,100.26h0l-.45-1.41Zm89.5-19.61c-.7,1.22-1.38,2.45-2,3.66l-.16.31-.08.16h0l-.05-.08-.4-.62-.8-1.24-1.56-2.48c-1-1.65-2-3.28-2.9-4.84l2,2.84,1.94,3.19,1,1.67.52.85.13.21s0,.08.06.09v-.09l.21-.37c.61-1.09,1.29-2.18,2-3.3m-82,23.58c.58,1.59,1,3.11,1.53,4.71.61.89,1.21,1.85,1.81,2.91,1.08,1.89,2.15,3.79,3.23,5.74l1.26-2.69c-.22,0,.08-.66.22-1l.44-1.15-2,4-2.42-4.59c-1.42-2.72-2.94-5.46-4.1-7.89M6.08,74.6l-.17-.44.79.72ZM4.81,73.48l.36.69a.9.9,0,0,1-.36-.69m3.3,6.36c-.14-.41-.23-.65-.37-1Zm-5.3,9,2.76,1.61L2.73,88.63Z" transform="translate(0.01 0.04)"/><polygon points="200.91 77.82 193 50.32 199.54 50.32 204.32 69.07 209.1 50.32 215.07 50.32 207.16 77.82 207.16 91.46 200.91 91.46 200.91 77.82"/><path d="M216.21,60.16c0-6.58,3.36-10.35,9.5-10.35s9.5,3.76,9.5,10.35V81.55c0,6.58-3.36,10.35-9.5,10.35s-9.5-3.76-9.5-10.35ZM222.46,82c0,2.94,1.25,4.06,3.24,4.06s3.24-1.12,3.24-4.06V59.74c0-2.94-1.25-4.06-3.24-4.06s-3.24,1.12-3.24,4.06Z" transform="translate(0.01 0.04)"/><path d="M245.21,50.28V82c0,2.94,1.25,4,3.24,4s3.24-1.06,3.24-4V50.28h5.91V81.6c0,6.59-3.18,10.35-9.33,10.35S239,88.19,239,81.6V50.28Z" transform="translate(0.01 0.04)"/><polygon points="267.45 61.67 267.45 91.46 261.82 91.46 261.82 50.32 269.68 50.32 276.11 74.95 276.11 50.32 281.68 50.32 281.68 91.46 275.25 91.46 267.45 61.67"/><path d="M295.55,68.5h8.76v13c0,6.58-3.18,10.35-9.33,10.35s-9.33-3.76-9.33-10.35V60.16c0-6.58,3.18-10.35,9.33-10.35s9.33,3.76,9.33,10.35v4H298.4V59.74c0-2.94-1.25-4.06-3.24-4.06s-3.24,1.12-3.24,4.06V82c0,2.94,1.25,4,3.24,4s3.24-1.06,3.24-4V74.38h-2.84Z" transform="translate(0.01 0.04)"/><polygon points="164.75 111.26 163.12 126.97 156.96 126.97 153.78 97.48 158.15 97.48 160.54 120.74 162.71 97.48 167.03 97.48 169.28 120.91 171.59 97.48 175.5 97.48 172.32 126.97 166.38 126.97 164.75 111.26"/><polygon points="182.24 109.91 188.4 109.91 188.4 114.12 182.24 114.12 182.24 122.76 189.99 122.76 189.99 126.97 177.75 126.97 177.75 97.48 189.99 97.48 189.99 101.7 182.24 101.7 182.24 109.91"/><path d="M206.16,104.22v1c0,3-.9,5-2.89,5.94,2.41,1,3.34,3.2,3.34,6.32v2.4c0,4.55-2.32,7-6.81,7h-7.05V97.44h6.77c4.65,0,6.65,2.23,6.65,6.78m-8.93-2.57v7.79H199c1.67,0,2.69-.76,2.69-3.12v-1.64c0-2.1-.69-3-2.28-3Zm0,12v9.06h2.57c1.51,0,2.32-.72,2.32-2.91v-2.57c0-2.74-.86-3.58-2.9-3.58Z" transform="translate(0.01 0.04)"/><polygon points="218.81 118.42 221.87 97.48 228.1 97.48 228.1 126.97 223.87 126.97 223.87 105.82 220.76 126.97 216.53 126.97 213.19 106.12 213.19 126.97 209.26 126.97 209.26 97.48 215.5 97.48 218.81 118.42"/><path d="M245.88,126.93h-4.53l-.77-5.35h-5.5l-.77,5.35h-4.12l4.57-29.49h6.56Zm-10.23-9.35H240l-2.16-14.91Z" transform="translate(0.01 0.04)"/><path d="M254,97.1c4.36,0,6.6,2.7,6.6,7.42v.93h-4.24v-1.22c0-2.11-.81-2.91-2.24-2.91s-2.24.8-2.24,2.91c0,6.07,8.77,7.21,8.77,15.63,0,4.72-2.28,7.41-6.69,7.41s-6.69-2.7-6.69-7.41V118h4.24v2.11c0,2.11.9,2.87,2.33,2.87s2.32-.76,2.32-2.87c0-6.07-8.77-7.2-8.77-15.63,0-4.72,2.24-7.42,6.6-7.42" transform="translate(0.01 0.04)"/><polygon points="261.9 97.48 275.76 97.48 275.76 101.7 271.07 101.7 271.07 126.97 266.6 126.97 266.6 101.7 261.9 101.7 261.9 97.48"/><polygon points="282.2 109.91 288.37 109.91 288.37 114.12 282.2 114.12 282.2 122.76 289.95 122.76 289.95 126.97 277.73 126.97 277.73 97.48 289.95 97.48 289.95 101.7 282.2 101.7 282.2 109.91"/><path d="M302.1,126.93a9.45,9.45,0,0,1-.41-3.62v-4.63c0-2.74-.89-3.75-2.93-3.75h-1.55v12h-4.48V97.44h6.77c4.65,0,6.64,2.23,6.64,6.78v2.32c0,3-.94,5-2.93,6,2.24,1,3,3.2,3,6.28v4.55a9.09,9.09,0,0,0,.49,3.58Zm-4.89-25.28v9.06H299c1.67,0,2.69-.76,2.69-3.12v-2.91c0-2.1-.69-3-2.28-3Z" transform="translate(0.01 0.04)"/><path d="M253.39,152.07V156c0,4.72-2.28,7.42-6.69,7.42S240,160.71,240,156V140.65c0-4.72,2.28-7.42,6.68-7.42s6.69,2.7,6.69,7.42v2.86h-4.24v-3.16c0-2.11-.9-2.91-2.32-2.91s-2.33.8-2.33,2.91v15.93c0,2.11.9,2.87,2.33,2.87s2.32-.76,2.32-2.87v-4.21Z" transform="translate(0.01 0.04)"/><path d="M270.64,163.07h-4.53l-.77-5.35h-5.5l-.78,5.35h-4.12l4.57-29.49h6.56Zm-10.23-9.35h4.32l-2.16-14.91Z" transform="translate(0.01 0.04)"/><polygon points="282.23 154.55 285.29 133.61 291.51 133.61 291.51 163.11 287.27 163.11 287.27 141.95 284.19 163.11 279.94 163.11 276.6 142.25 276.6 163.11 272.69 163.11 272.69 133.61 278.21 133.61 282.23 154.55"/><path d="M308.07,140.86v3.83c0,4.72-2.2,7.29-6.69,7.29h-2.12v11.08h-4.48V133.57h6.61c4.48,0,6.69,2.57,6.69,7.29m-8.81-3.07v10h2.12c1.43,0,2.2-.67,2.2-2.78v-4.42c0-2.11-.77-2.78-2.2-2.78Z" transform="translate(0.01 0.04)"/><polygon points="414.23 52.62 428.8 52.62 428.8 57.05 423.87 57.05 423.87 83.63 419.15 83.63 419.15 57.05 414.23 57.05 414.23 52.62"/><polygon points="435.56 83.63 430.86 83.63 430.86 52.62 435.56 52.62 435.56 65.91 440.93 65.91 440.93 52.62 445.74 52.62 445.74 83.63 440.93 83.63 440.93 70.34 435.56 70.34 435.56 83.63"/><path d="M331.43,77.72H317.19V64.9c5,0,5-.44,8-1.31a15,15,0,0,0,7.21-4.35,26.89,26.89,0,0,0,4.75-8.79h11.72V163.84H331.43Z" transform="translate(0.01 0.04)"/><path d="M364.62,156.84q-7-7-7-20.3v-9.8a31.9,31.9,0,0,1,2.68-13.83,19.25,19.25,0,0,1,8.69-8.77v-.31a18.72,18.72,0,0,1-8.13-8.3c-1.74-3.52-2.61-8-2.61-13.5V77.44q0-13.26,6.87-20.3t19.67-7q12.81,0,19.67,7t6.88,20.3V82q0,15.8-10.75,21.8v.31a19.2,19.2,0,0,1,8.69,8.77,31.9,31.9,0,0,1,2.69,13.83v9.8q0,13.26-7,20.3t-20.15,7Q371.65,163.87,364.62,156.84Zm29.94-21.25V125q0-12.48-9.8-12.48T375,125v10.59q0,12.48,9.79,12.48T394.56,135.59Zm-.63-49.93V77q0-11.06-9.17-11.06T375.6,77v8.69q0,11.06,9.16,11.06T393.93,85.66Z" transform="translate(0.01 0.04)"/></g></g></svg>